<svg id="katman_1" data-name="katman 1" xmlns="http://www.w3.org/2000/svg" viewBox="0 0 512 512"><defs><style>.cls-1,.cls-3{fill:#fff;}.cls-2,.cls-5{fill:#213b78;}.cls-2,.cls-3,.cls-4{fill-rule:evenodd;}.cls-4{fill:#11a3de;}</style></defs><path class="cls-1" d="M114.67,24.17H397.33V346.39c0,77.93-63.48,141.44-141.23,141.44-77.94,0-141.43-63.5-141.43-141.44Z"/><path class="cls-2" d="M386.9,69.31H125.09V346.38c0,72.19,58.81,131,131,131,72,0,130.8-58.83,130.8-131Z"/><polygon class="cls-3" points="319.66 233.69 331.54 244.38 353.84 244.38 365.72 233.69 365.72 233.68 319.66 233.68 319.66 233.69"/><polygon class="cls-3" points="169.36 104.36 158.42 163.75 180.29 163.75 169.36 104.36"/><polygon class="cls-3" points="331.56 218.44 331.56 218.44 319.66 218.44 319.66 227.58 365.72 227.58 365.72 218.44 353.84 218.44 353.84 218.44 331.56 218.44"/><polygon class="cls-3" points="192.42 233.69 192.42 233.68 146.28 233.68 146.28 233.69 158.11 244.35 180.48 244.35 192.42 233.69"/><rect class="cls-1" x="331.56" y="250.13" width="22.28" height="20.98"/><polygon class="cls-3" points="180.44 249.73 158.16 249.73 158.26 271.11 180.44 271.11 180.44 249.73"/><path class="cls-3" d="M331.56,292.43h-7V277.27H317.6v4.06h-7v-4.06H201.43v4.06H194.5v-4.06h-7v15.16h-7V277.2H158.16l.1,73.85a97.93,97.93,0,0,0,49,84.66A80.16,80.16,0,0,1,245.7,292.43h20.71a80.23,80.23,0,0,1,38.42,143.28,98.38,98.38,0,0,0,49-84.66V277.2H331.56Z"/><rect class="cls-1" x="146.27" y="218.45" width="46.15" height="9.13"/><polygon class="cls-3" points="180.44 169.84 158.26 169.84 158.16 212.44 180.44 212.44 180.44 169.84"/><rect class="cls-1" x="331.56" y="169.84" width="22.28" height="42.5"/><polygon class="cls-3" points="342.65 104.36 331.71 163.75 353.68 163.75 342.65 104.36"/><polygon class="cls-4" points="234.82 320.94 277.19 320.94 280.86 392.32 231.24 392.32 234.82 320.94"/><polygon class="cls-3" points="256.1 360.22 266.39 392.01 299.68 392.01 272.73 411.61 282.93 443.4 256.1 423.8 229.06 443.4 239.37 411.61 212.42 392.01 245.79 392.01 256.1 360.22"/><polygon class="cls-4" points="291.74 306.68 291.74 310.84 282.74 310.84 282.74 316.89 229.35 316.89 229.35 310.84 220.25 310.84 220.25 306.68 291.74 306.68"/><polygon class="cls-4" points="234.82 297.16 208.36 281.34 303.72 281.34 276.9 297.16 276.9 302.61 234.82 302.61 234.82 297.16"/><path class="cls-4" d="M258.37,215.17a54.76,54.76,0,0,1,52.2,54.57H201.43a54.77,54.77,0,0,1,52.29-54.57l2.38-17Z"/><rect class="cls-5" x="194.5" y="285.39" width="6.93" height="7.03"/><rect class="cls-5" x="310.57" y="285.39" width="7.03" height="7.03"/><polygon class="cls-3" points="202.62 173.65 186.3 160.84 207.19 166.76 213.12 159.42 219.36 171.13 240.41 177.99 223.82 180.03 229.87 193.4 212.01 181.16 196.59 182.14 202.62 173.65"/><polygon class="cls-3" points="244.59 154.98 262.79 159.68 267.46 153.91 271.97 163.3 289.12 168.93 275.65 170.4 280.98 181.57 266.15 170.97 253.62 172.35 258.14 165.46 244.59 154.98"/><polygon class="cls-3" points="284.19 141.66 298.14 145.46 301.67 139.5 305.89 147.78 319.43 152.17 309.02 153.39 312.72 162.01 301.52 154.34 291.25 155.63 294.7 149.86 284.19 141.66"/><polygon class="cls-3" points="301.09 121.48 312.54 124.16 315.21 119.59 319.26 125.97 330.22 128.64 321.59 130.28 325.31 136.91 315.74 131.05 307.36 132.44 309.79 127.78 301.09 121.48"/><polygon class="cls-3" points="293.23 103.21 301.6 104.41 303.5 101.47 306.25 105.62 314.53 107.17 308.33 108.47 311.25 113.38 304.1 109.42 297.73 111.22 299.69 107.44 293.23 103.21"/><path class="cls-2" d="M288.18,54H272.42l-1.87,3.48H259.86l14.25-25.36h12.68l14.27,25.36h-11ZM274.82,49.6h11.09l-5.65-10.2ZM153.51,54H137.68l-1.9,3.48h-10.7l14.26-25.36H152l14.36,25.36h-11ZM140,49.7h11.09L145.6,39.4ZM374.15,54H358.2l-1.8,3.48H345.71L360,32.07h12.67L386.9,57.43h-11ZM360.57,49.7h11.18l-5.54-10.3ZM171.92,32.07h10.91l14.34,14.06V32.07h11.09V57.43H197.17L183,43.57V57.43H171.92Zm45.65.1h11.7v9.52l13.66-9.62,14.26.1-13.88,9.52,14.47,15.74H243.92l-9.1-10.11-5.55,3.86v6.25h-11.7ZM335.91,45.34a9.34,9.34,0,0,1,6.74,7.92l.4,4.17H330.76l-.38-4.25c-.41-3.86-1.5-6.06-6.05-6.06h-5.85V57.43H306.71V32.07h23.06c2.67,0,6,.2,8.4,1.58a5.86,5.86,0,0,1,3.19,5.26c0,3.26-2.67,5.55-5.45,6.43m-17.43-3h5c1.39,0,3.85,0,4.95-1a2.21,2.21,0,0,0,.78-1.58A2.07,2.07,0,0,0,328,37.91a9.22,9.22,0,0,0-4.36-.7h-5.16Z"/></svg>