<svg id="katman_1" data-name="katman 1" xmlns="http://www.w3.org/2000/svg" viewBox="0 0 512 512"><defs><style>.cls-1,.cls-3{fill:#fff;}.cls-2,.cls-5{fill:#213b78;}.cls-2,.cls-3,.cls-4{fill-rule:evenodd;}.cls-4{fill:#11a3de;}</style></defs><path class="cls-1" d="M54,152.77H179.84V296.25a62.94,62.94,0,1,1-125.87,0Z"/><path class="cls-2" d="M175.19,172.87H58.61V296.25a58.29,58.29,0,1,0,116.58,0Z"/><polygon class="cls-3" points="145.25 246.07 150.54 250.83 160.47 250.83 165.76 246.07 165.76 246.06 145.25 246.06 145.25 246.07"/><polygon class="cls-3" points="78.32 188.47 73.45 214.92 83.19 214.92 78.32 188.47"/><polygon class="cls-3" points="150.55 239.27 150.55 239.28 145.25 239.28 145.25 243.34 165.76 243.34 165.76 239.28 160.47 239.28 160.47 239.27 150.55 239.27"/><polygon class="cls-3" points="88.59 246.07 88.59 246.06 68.04 246.06 68.04 246.07 73.31 250.81 83.27 250.81 88.59 246.07"/><rect class="cls-1" x="150.55" y="253.39" width="9.92" height="9.34"/><polygon class="cls-3" points="83.26 253.21 73.34 253.21 73.38 262.73 83.26 262.73 83.26 253.21"/><path class="cls-3" d="M150.55,272.22h-3.13v-6.75h-3.08v1.81h-3.13v-1.81H92.6v1.81H89.52v-1.81H86.39v6.75H83.26v-6.78H73.34l0,32.89A43.62,43.62,0,0,0,95.21,336a35.7,35.7,0,0,1,17.11-63.81h9.22A35.74,35.74,0,0,1,138.65,336a43.82,43.82,0,0,0,21.82-37.7V265.44h-9.92Z"/><rect class="cls-1" x="68.04" y="239.28" width="20.55" height="4.06"/><polygon class="cls-3" points="83.26 217.63 73.38 217.63 73.34 236.6 83.26 236.6 83.26 217.63"/><rect class="cls-1" x="150.55" y="217.63" width="9.92" height="18.93"/><polygon class="cls-3" points="155.49 188.47 150.62 214.92 160.4 214.92 155.49 188.47"/><polygon class="cls-4" points="107.47 284.92 126.34 284.92 127.97 316.7 105.88 316.7 107.47 284.92"/><polygon class="cls-3" points="116.95 302.41 121.53 316.56 136.35 316.56 124.36 325.29 128.9 339.45 116.95 330.72 104.91 339.45 109.5 325.29 97.5 316.56 112.36 316.56 116.95 302.41"/><polygon class="cls-4" points="132.82 278.57 132.82 280.42 128.81 280.42 128.81 283.11 105.04 283.11 105.04 280.42 100.99 280.42 100.99 278.57 132.82 278.57"/><polygon class="cls-4" points="107.47 274.33 95.69 267.28 138.15 267.28 126.21 274.33 126.21 276.76 107.47 276.76 107.47 274.33"/><path class="cls-4" d="M118,237.82a24.38,24.38,0,0,1,23.25,24.3H92.6a24.39,24.39,0,0,1,23.29-24.3l1.06-7.58Z"/><rect class="cls-5" x="89.52" y="269.09" width="3.08" height="3.13"/><rect class="cls-5" x="141.21" y="269.09" width="3.13" height="3.13"/><polygon class="cls-3" points="93.14 219.33 85.87 213.63 95.17 216.26 97.81 212.99 100.59 218.21 109.96 221.26 102.58 222.17 105.27 228.13 97.32 222.67 90.45 223.11 93.14 219.33"/><polygon class="cls-3" points="111.82 211.01 119.93 213.11 122.01 210.54 124.02 214.72 131.66 217.23 125.66 217.88 128.03 222.86 121.43 218.14 115.84 218.75 117.86 215.68 111.82 211.01"/><polygon class="cls-3" points="129.46 205.09 135.67 206.78 137.24 204.12 139.12 207.81 145.15 209.77 140.51 210.31 142.16 214.15 137.18 210.73 132.6 211.31 134.14 208.73 129.46 205.09"/><polygon class="cls-3" points="136.98 196.1 142.08 197.29 143.27 195.26 145.08 198.1 149.96 199.28 146.11 200.02 147.77 202.97 143.51 200.36 139.78 200.98 140.86 198.9 136.98 196.1"/><polygon class="cls-3" points="133.49 187.96 137.21 188.5 138.06 187.19 139.28 189.03 142.97 189.72 140.21 190.3 141.51 192.49 138.32 190.72 135.49 191.53 136.36 189.84 133.49 187.96"/><path class="cls-2" d="M131.24,166h-7l-.84,1.55h-4.76l6.35-11.3h5.65l6.35,11.3h-4.9Zm-6-1.94h4.93l-2.51-4.54Zm-54,1.94h-7l-.85,1.55H58.6L65,156.28H70.6L77,167.58H72.1Zm-6-1.89H70.2l-2.46-4.59ZM169.52,166h-7.1l-.8,1.55h-4.77l6.36-11.3h5.64l6.34,11.3H170.3Zm-6.05-1.89h5L166,159.55Zm-84-7.86h4.86l6.39,6.27v-6.27h4.94v11.3H90.71L84.4,161.4v6.18H79.46Zm20.33.05H105v4.23l6.08-4.28,6.35.05-6.18,4.23,6.45,7h-6.18l-4-4.5L105,164.79v2.79H99.79Zm52.7,5.86a4.17,4.17,0,0,1,3,3.53l.18,1.86H150.2l-.17-1.9c-.19-1.72-.67-2.7-2.7-2.7h-2.6v4.6h-5.24v-11.3h10.26a7.76,7.76,0,0,1,3.75.71,2.61,2.61,0,0,1,1.42,2.34,3.18,3.18,0,0,1-2.43,2.86m-7.76-1.32h2.21a3.76,3.76,0,0,0,2.2-.44,1,1,0,0,0,.35-.71.93.93,0,0,0-.52-.84,4.11,4.11,0,0,0-1.94-.31h-2.3Z"/><path class="cls-5" d="M218.08,217.79a.55.55,0,0,1,.59-.45h7.43a.55.55,0,0,1,.59.45l10.49,30.08c.09.32,0,.46-.32.46h-7.52a.56.56,0,0,1-.6-.46l-1.45-4.78H217.21l-1.45,4.78a.56.56,0,0,1-.6.46h-7.47c-.32,0-.41-.14-.32-.46Zm7.2,18.64-2.87-9.66h-.14l-3,9.66Z"/><path class="cls-5" d="M238.36,217.79c0-.31.14-.45.46-.45h6.7a.73.73,0,0,1,.77.45l9.34,17.55h.19V217.79c0-.31.13-.45.45-.45h6.38c.32,0,.46.14.46.45v30.08c0,.32-.14.46-.46.46H256a.72.72,0,0,1-.77-.46l-9.25-17.5h-.28v17.5c0,.32-.13.46-.45.46h-6.38c-.32,0-.46-.14-.46-.46Z"/><path class="cls-5" d="M266.3,217.79c0-.31.13-.45.45-.45h7.11c.32,0,.46.14.46.45v12.13l8.88-12.17a1,1,0,0,1,.78-.41h8c.37,0,.46.27.27.59l-9.25,12,9.8,17.91a.31.31,0,0,1-.27.5h-8.16a.74.74,0,0,1-.73-.41l-6-11.67-3.33,4.42v7.2c0,.32-.14.46-.46.46h-7.11c-.32,0-.45-.14-.45-.46Z"/><path class="cls-5" d="M303.07,217.79a.56.56,0,0,1,.6-.45h7.43a.55.55,0,0,1,.59.45l10.48,30.08c.09.32,0,.46-.32.46h-7.52a.55.55,0,0,1-.59-.46l-1.46-4.78H302.21l-1.46,4.78a.55.55,0,0,1-.59.46h-7.48c-.32,0-.41-.14-.32-.46Zm7.21,18.64-2.88-9.66h-.13l-3,9.66Z"/><path class="cls-5" d="M340,248.33a.67.67,0,0,1-.68-.46l-4.7-10.57h-3a.25.25,0,0,0-.28.27v10.3c0,.32-.13.46-.45.46h-7.11c-.32,0-.46-.14-.46-.46V217.79c0-.31.14-.45.46-.45h12.62c7.11,0,11.17,4.15,11.17,10a9.25,9.25,0,0,1-5.1,8.66l5.69,11.8c.14.32,0,.55-.32.55Zm-4.06-17.64c2.33,0,3.65-1.27,3.65-3.28s-1.32-3.28-3.65-3.28h-4.28a.25.25,0,0,0-.28.27v6a.25.25,0,0,0,.28.27Z"/><path class="cls-5" d="M358.9,217.79a.55.55,0,0,1,.59-.45h7.43a.56.56,0,0,1,.6.45L378,247.87c.09.32,0,.46-.32.46h-7.52a.55.55,0,0,1-.59-.46l-1.46-4.78H358l-1.46,4.78a.55.55,0,0,1-.59.46h-7.48c-.32,0-.41-.14-.32-.46Zm7.2,18.64-2.87-9.66h-.14l-3,9.66Z"/><path class="cls-5" d="M209.42,263.37c0-.32.14-.46.46-.46H222.5c6.93,0,10.12,3.33,10.12,8.25a7,7,0,0,1-3.79,6.66v.09c2.33.86,4.33,3.42,4.33,7.06,0,6.06-4.28,8.93-10.8,8.93H209.88c-.32,0-.46-.13-.46-.45Zm11.53,12c2.46,0,3.69-1.05,3.69-3.19S223.41,269,221,269h-3.24a.24.24,0,0,0-.27.27v5.83a.25.25,0,0,0,.27.28Zm-3.51,12.21a.24.24,0,0,0,.27.27h3.65c2.51,0,3.78-1.18,3.78-3.51,0-2.14-1.23-3.46-3.78-3.46h-3.65a.24.24,0,0,0-.27.27Z"/><path class="cls-5" d="M235.49,281.92V270.39c0-.32.14-.46.45-.46h7.11c.32,0,.46.14.46.46v12c0,3.1,1.73,4.88,4.33,4.88s4.28-1.78,4.28-4.88v-12c0-.32.14-.46.46-.46h7.11c.32,0,.46.14.46.46v11.53c0,8.25-4.93,12.53-12.31,12.53S235.49,290.17,235.49,281.92Zm.5-13.08c-.32,0-.46-.14-.46-.46v-5c0-.32.14-.46.46-.46h7.06c.32,0,.46.14.46.46v5c0,.32-.14.46-.46.46Zm16.59,0c-.32,0-.46-.14-.46-.46v-5c0-.32.14-.46.46-.46h7.15c.32,0,.46.14.46.46v5c0,.32-.14.46-.46.46Z"/><path class="cls-5" d="M270.94,293.9c-.31,0-.45-.13-.45-.45V281.92l-9.39-18.5c-.14-.32,0-.51.36-.51h7.16a.78.78,0,0,1,.73.46l5.19,10.57h.14l5.11-10.57a.7.7,0,0,1,.73-.46h7c.37,0,.51.19.37.51l-9.39,18.5v11.53c0,.32-.14.45-.46.45Z"/><path class="cls-5" d="M288.85,281.92V270.39c0-.32.14-.46.46-.46h7.11c.32,0,.45.14.45.46v12c0,3.1,1.74,4.88,4.33,4.88,2.74,0,4.29-1.78,4.29-4.88v-12c0-.32.13-.46.45-.46h7.11c.32,0,.46.14.46.46v11.53c0,8.25-4.92,12.53-12.31,12.53S288.85,290.17,288.85,281.92Zm.51-13.08c-.32,0-.46-.14-.46-.46v-5c0-.32.14-.46.46-.46h7.06c.32,0,.45.14.45.46v5c0,.32-.13.46-.45.46Zm16.58,0c-.32,0-.45-.14-.45-.46v-5c0-.32.13-.46.45-.46h7.16c.32,0,.46.14.46.46v5c0,.32-.14.46-.46.46Z"/><path class="cls-5" d="M316.65,263.37c0-.32.14-.46.46-.46h7.11c.32,0,.45.14.45.46v12.12l8.89-12.17a1,1,0,0,1,.78-.41h8c.36,0,.45.28.27.6l-9.25,12,9.8,17.91a.31.31,0,0,1-.28.5h-8.15a.71.71,0,0,1-.73-.41l-6-11.66-3.33,4.42v7.2c0,.32-.13.45-.45.45h-7.11c-.32,0-.46-.13-.46-.45Z"/><path class="cls-5" d="M353.43,299.06c-.23.18-.77-.1-.77-.46l.22-4.24a15.86,15.86,0,0,1-9.43-4.33.45.45,0,0,1,0-.73l4.1-4.83c.22-.23.41-.27.63,0a12.46,12.46,0,0,0,7.89,3.09c2.92,0,4.37-1.14,4.37-2.91,0-1.32-.86-2.19-3.91-2.6l-1.65-.23c-6.74-1-10.34-3.92-10.34-9.75s4.51-9.66,11.53-9.66a18.24,18.24,0,0,1,11.07,3.42.45.45,0,0,1,.09.68l-3.41,5a.46.46,0,0,1-.64.13,12.48,12.48,0,0,0-7-2.32c-2.33,0-3.42,1.09-3.42,2.6s1,2.23,4,2.6l1.64.22c6.79,1,10.26,4,10.26,9.85,0,4.87-3.1,8.61-9.25,9.7Z"/><path class="cls-5" d="M370.57,263.37c0-.32.13-.46.45-.46H391.3c.32,0,.46.14.46.46v5.88c0,.32-.14.45-.46.45H378.86a.25.25,0,0,0-.27.28v4.69a.25.25,0,0,0,.27.28h10.21c.32,0,.46.13.46.45v5.74c0,.32-.14.46-.46.46H378.86a.24.24,0,0,0-.27.27v5a.24.24,0,0,0,.27.27H391.3c.32,0,.46.14.46.46v5.88c0,.32-.14.45-.46.45H371c-.32,0-.45-.13-.45-.45Z"/><path class="cls-5" d="M394.17,263.37c0-.32.14-.46.46-.46h7.11c.32,0,.45.14.45.46v11a.25.25,0,0,0,.28.28h8.43c.18,0,.27-.09.27-.28v-11c0-.32.14-.46.46-.46h7.11c.32,0,.45.14.45.46v30.08c0,.32-.13.45-.45.45h-7.11c-.32,0-.46-.13-.46-.45V282a.24.24,0,0,0-.27-.27h-8.43a.25.25,0,0,0-.28.27v11.44c0,.32-.13.45-.45.45h-7.11c-.32,0-.46-.13-.46-.45Z"/><path class="cls-5" d="M422.75,268.84c-.32,0-.46-.14-.46-.46v-5c0-.32.14-.46.46-.46h6.74c.32,0,.46.14.46.46v5c0,.32-.14.46-.46.46Zm0,25.06c-.32,0-.46-.13-.46-.45V270.39c0-.32.14-.46.46-.46h6.74c.32,0,.46.14.46.46v23.06c0,.32-.14.45-.46.45Z"/><path class="cls-5" d="M449.77,293.9a.67.67,0,0,1-.68-.45l-4.7-10.57h-3a.24.24,0,0,0-.27.27v10.3c0,.32-.14.45-.46.45h-7.11c-.32,0-.45-.13-.45-.45V263.37c0-.32.13-.46.45-.46h12.63c7.11,0,11.16,4.15,11.16,10a9.23,9.23,0,0,1-5.1,8.65l5.7,11.81c.13.32,0,.54-.32.54Zm-4-17.63c2.32,0,3.64-1.28,3.64-3.28s-1.32-3.29-3.64-3.29h-4.29a.25.25,0,0,0-.27.28v6c0,.19.09.28.27.28Z"/><path class="cls-5" d="M209.42,308.94c0-.31.14-.45.46-.45H222.5c6.93,0,10.12,3.32,10.12,8.25a7,7,0,0,1-3.79,6.65v.09c2.33.87,4.33,3.42,4.33,7.07,0,6.06-4.28,8.93-10.8,8.93H209.88c-.32,0-.46-.14-.46-.46Zm11.53,12c2.46,0,3.69-1.05,3.69-3.19s-1.23-3.19-3.69-3.19h-3.24a.24.24,0,0,0-.27.27v5.84a.24.24,0,0,0,.27.27Zm-3.51,12.21c0,.19.09.28.27.28h3.65c2.51,0,3.78-1.19,3.78-3.51,0-2.14-1.23-3.47-3.78-3.47h-3.65a.25.25,0,0,0-.27.28Z"/><path class="cls-5" d="M235.58,308.94c0-.31.14-.45.46-.45h20.28c.32,0,.45.14.45.45v5.88c0,.32-.13.46-.45.46H243.87a.24.24,0,0,0-.27.27v4.7a.24.24,0,0,0,.27.27h10.21c.32,0,.46.14.46.46v5.74c0,.32-.14.45-.46.45H243.87a.25.25,0,0,0-.27.28v5c0,.19.09.28.27.28h12.45c.32,0,.45.13.45.45V339c0,.32-.13.46-.45.46H236c-.32,0-.46-.14-.46-.46Z"/><path class="cls-5" d="M259.19,308.94c0-.31.13-.45.45-.45h7.11c.32,0,.46.14.46.45V332.1a.24.24,0,0,0,.27.27h13.13c.32,0,.45.14.45.45V339c0,.32-.13.46-.45.46h-21c-.32,0-.45-.14-.45-.46Z"/><path class="cls-5" d="M282.66,308.94c0-.31.13-.45.45-.45h20.28c.32,0,.46.14.46.45v5.88c0,.32-.14.46-.46.46H291a.24.24,0,0,0-.27.27v4.7a.24.24,0,0,0,.27.27h10.21c.32,0,.46.14.46.46v5.74c0,.32-.14.45-.46.45H291a.25.25,0,0,0-.27.28v5c0,.19.09.28.27.28h12.44c.32,0,.46.13.46.45V339c0,.32-.14.46-.46.46H283.11c-.32,0-.45-.14-.45-.46Z"/><path class="cls-5" d="M306.26,308.94c0-.31.14-.45.46-.45h12c5.52,0,9.44,2.28,11,7.06.6,2.05.92,3.65.92,8.43,0,4.61-.28,6.43-.92,8.43-1.59,4.79-5.51,7.07-11,7.07h-12c-.32,0-.46-.14-.46-.46Zm8,23.16a.25.25,0,0,0,.28.27H317c2.87,0,4.38-.78,5.11-3,.27-.92.45-2,.45-5.43a20.09,20.09,0,0,0-.45-5.42c-.73-2.19-2.24-3-5.11-3h-2.41a.25.25,0,0,0-.28.27Z"/><path class="cls-5" d="M333.56,314.41c-.32,0-.45-.13-.45-.45v-5c0-.31.13-.45.45-.45h6.75c.32,0,.45.14.45.45v5c0,.32-.13.45-.45.45Zm0,25.07c-.32,0-.45-.14-.45-.46V316c0-.32.13-.45.45-.45h6.75c.32,0,.45.13.45.45V339c0,.32-.13.46-.45.46Z"/><path class="cls-5" d="M351.61,339.48c-.32,0-.46-.14-.46-.46V327.49L341.76,309c-.13-.32,0-.5.37-.5h7.15a.79.79,0,0,1,.73.45l5.2,10.58h.14l5.1-10.58a.71.71,0,0,1,.73-.45h7c.36,0,.5.18.36.5l-9.39,18.5V339c0,.32-.13.46-.45.46Z"/><path class="cls-5" d="M369.61,308.94c0-.31.14-.45.46-.45h20.28c.32,0,.45.14.45.45v5.88c0,.32-.13.46-.45.46H377.9a.24.24,0,0,0-.27.27v4.7a.24.24,0,0,0,.27.27h10.21c.32,0,.46.14.46.46v5.74c0,.32-.14.45-.46.45H377.9a.25.25,0,0,0-.27.28v5c0,.19.09.28.27.28h12.45c.32,0,.45.13.45.45V339c0,.32-.13.46-.45.46H370.07c-.32,0-.46-.14-.46-.46Z"/><path class="cls-5" d="M391.9,335.6a.44.44,0,0,1,0-.72l4.1-4.83c.23-.23.41-.28.64-.05a12.44,12.44,0,0,0,7.88,3.1c2.92,0,4.38-1.14,4.38-2.92,0-1.32-.87-2.19-3.92-2.6l-1.64-.22c-6.75-1-10.35-3.92-10.35-9.76s4.52-9.66,11.53-9.66a18.33,18.33,0,0,1,11.08,3.42.45.45,0,0,1,.09.68l-3.42,5a.46.46,0,0,1-.64.14,12.36,12.36,0,0,0-7-2.33c-2.32,0-3.42,1.1-3.42,2.6s1,2.23,4,2.6l1.64.23c6.79.95,10.25,4,10.25,9.84,0,5.7-4.42,9.94-12.67,9.94C399.32,340,394.22,337.93,391.9,335.6Z"/><path class="cls-5" d="M419.38,314.41c-.32,0-.46-.13-.46-.45v-5c0-.31.14-.45.46-.45h6.74c.32,0,.46.14.46.45v5c0,.32-.14.45-.46.45Zm0,25.07c-.32,0-.46-.14-.46-.46V316c0-.32.14-.45.46-.45h6.74c.32,0,.46.13.46.45V339c0,.32-.14.46-.46.46Z"/><path class="cls-5" d="M216.72,202.88h-.14a.42.42,0,0,1-.23-.14.34.34,0,0,1-.09-.18V179.17a.28.28,0,0,0-.23-.27h-7.82a.41.41,0,0,1-.19-.09l0-.05,0,0s0-.13,0-.27v-6.23a.4.4,0,0,1,.32-.45h24a.41.41,0,0,1,.32.13.18.18,0,0,0,0,.1.3.3,0,0,1,.1.22v6.23a.55.55,0,0,1-.14.37.4.4,0,0,1-.23.09h-7.74c-.09,0-.13,0-.18,0l-.09.09v23.53a.69.69,0,0,1-.23.28c-.05,0-.09,0-.23,0Z"/><path class="cls-5" d="M233.38,196.11c0-.32.14-.46.46-.46h6.36c.32,0,.46.14.46.46v6.31c0,.32-.14.46-.46.46h-6.36c-.32,0-.46-.14-.46-.46Z"/><path class="cls-5" d="M244.83,187.32c0-4.62.18-6.36.91-8.42,1.65-5.13,5.63-7.69,11.31-7.69s9.38,2.56,11.17,7.09a.43.43,0,0,1-.23.64l-6.09,2.66c-.32.13-.5,0-.64-.28-.87-1.83-1.92-2.93-4.08-2.93a3.63,3.63,0,0,0-3.75,2.7c-.37.92-.46,1.93-.46,6.23s.09,5.31.46,6.22a3.62,3.62,0,0,0,3.75,2.7c2.16,0,3.21-1.09,4.08-2.92.14-.33.32-.42.64-.28L268,195.7a.43.43,0,0,1,.23.64c-1.79,4.53-5.63,7.09-11.17,7.09s-9.66-2.56-11.31-7.69C245,193.68,244.83,191.94,244.83,187.32Z"/><path class="cls-5" d="M271.69,196.11c0-.32.14-.46.46-.46h6.36c.32,0,.46.14.46.46v6.31c0,.32-.14.46-.46.46h-6.36c-.32,0-.46-.14-.46-.46Z"/></svg>