<svg width="74" height="74" viewBox="0 0 74 74" fill="none" xmlns="http://www.w3.org/2000/svg">
<g filter="url(#filter0_bii_133_518)">
<circle cx="36.6393" cy="36.6393" r="36.6393" fill="white" fill-opacity="0.2"/>
</g>
<path d="M49.5666 24.4493C53.8582 30.7691 55.9777 37.8978 55.1854 46.1045C55.1821 46.1392 55.164 46.1711 55.1355 46.192C51.8856 48.5822 48.7368 50.0327 45.6322 50.9947C45.608 51.0021 45.5822 51.0017 45.5582 50.9935C45.5343 50.9854 45.5135 50.97 45.4987 50.9495C44.7815 49.95 44.1298 48.8962 43.5588 47.7896C43.5261 47.7244 43.556 47.6459 43.6234 47.6202C44.6585 47.2296 45.6427 46.7615 46.5893 46.2072C46.6639 46.1635 46.6687 46.0564 46.5998 46.005C46.3989 45.8557 46.1998 45.6987 46.0094 45.5417C45.9737 45.5126 45.9258 45.5069 45.8854 45.5264C39.7394 48.369 33.0067 48.369 26.788 45.5264C26.7477 45.5084 26.6997 45.5145 26.665 45.5431C26.475 45.7001 26.2755 45.8557 26.0765 46.005C26.0076 46.0564 26.0133 46.1635 26.0884 46.2072C27.035 46.751 28.0192 47.2296 29.0528 47.6221C29.1198 47.6478 29.1516 47.7244 29.1184 47.7896C28.5598 48.8976 27.9081 49.9514 27.1775 50.9509C27.1457 50.9914 27.0935 51.0099 27.0441 50.9947C23.9542 50.0327 20.8054 48.5822 17.5555 46.192C17.5284 46.1711 17.5089 46.1378 17.5061 46.103C16.8439 39.0044 18.1934 31.8167 23.1196 24.4478C23.1315 24.4283 23.1495 24.4131 23.1704 24.4041C25.5944 23.2899 28.1912 22.4701 30.9053 22.002C30.9547 21.9944 31.0041 22.0172 31.0298 22.061C31.3651 22.6557 31.7485 23.4183 32.0078 24.0415C34.8687 23.6039 37.7743 23.6039 40.6951 24.0415C40.9544 23.4316 41.3244 22.6557 41.6584 22.061C41.6703 22.0393 41.6887 22.0219 41.711 22.0113C41.7334 22.0007 41.7585 21.9974 41.7828 22.002C44.4984 22.4716 47.0952 23.2913 49.5172 24.4041C49.5386 24.4131 49.5562 24.4283 49.5666 24.4493ZM33.4623 37.9463C33.4922 35.8478 31.9646 34.1113 30.047 34.1113C28.1451 34.1113 26.6322 35.8325 26.6322 37.9463C26.6322 40.0596 28.175 41.7809 30.047 41.7809C31.9494 41.7809 33.4623 40.0596 33.4623 37.9463ZM46.0887 37.9463C46.1186 35.8478 44.591 34.1113 42.6739 34.1113C40.7715 34.1113 39.2587 35.8325 39.2587 37.9463C39.2587 40.0596 40.8015 41.7809 42.6739 41.7809C44.591 41.7809 46.0887 40.0596 46.0887 37.9463Z" fill="url(#paint0_linear_133_518)"/>
<defs>
<filter id="filter0_bii_133_518" x="-30" y="-30" width="133.279" height="133.279" filterUnits="userSpaceOnUse" color-interpolation-filters="sRGB">
<feFlood flood-opacity="0" result="BackgroundImageFix"/>
<feGaussianBlur in="BackgroundImage" stdDeviation="15"/>
<feComposite in2="SourceAlpha" operator="in" result="effect1_backgroundBlur_133_518"/>
<feBlend mode="normal" in="SourceGraphic" in2="effect1_backgroundBlur_133_518" result="shape"/>
<feColorMatrix in="SourceAlpha" type="matrix" values="0 0 0 0 0 0 0 0 0 0 0 0 0 0 0 0 0 0 127 0" result="hardAlpha"/>
<feOffset dy="2"/>
<feGaussianBlur stdDeviation="2"/>
<feComposite in2="hardAlpha" operator="arithmetic" k2="-1" k3="1"/>
<feColorMatrix type="matrix" values="0 0 0 0 1 0 0 0 0 1 0 0 0 0 1 0 0 0 0.1 0"/>
<feBlend mode="normal" in2="shape" result="effect2_innerShadow_133_518"/>
<feColorMatrix in="SourceAlpha" type="matrix" values="0 0 0 0 0 0 0 0 0 0 0 0 0 0 0 0 0 0 127 0" result="hardAlpha"/>
<feOffset dy="-5"/>
<feGaussianBlur stdDeviation="6"/>
<feComposite in2="hardAlpha" operator="arithmetic" k2="-1" k3="1"/>
<feColorMatrix type="matrix" values="0 0 0 0 0.168627 0 0 0 0 0.227451 0 0 0 0 0.870588 0 0 0 0.35 0"/>
<feBlend mode="normal" in2="effect2_innerShadow_133_518" result="effect3_innerShadow_133_518"/>
</filter>
<linearGradient id="paint0_linear_133_518" x1="23.7344" y1="17.2739" x2="55.3979" y2="51.071" gradientUnits="userSpaceOnUse">
<stop stop-color="#9EA6F9"/>
<stop offset="0.505208" stop-color="#5761D2"/>
<stop offset="1" stop-color="#0014E9"/>
</linearGradient>
</defs>
</svg>
