<svg width="74" height="74" viewBox="0 0 74 74" fill="none" xmlns="http://www.w3.org/2000/svg">
<g filter="url(#filter0_bii_118_27)">
<circle cx="36.92" cy="36.64" r="36.64" fill="white" fill-opacity="0.2"/>
</g>
<path fill-rule="evenodd" clip-rule="evenodd" d="M50.3757 23.6676C51.1755 24.4671 51.7997 25.4249 52.2081 26.4796C52.679 27.7308 52.9303 29.054 52.9508 30.3908C53.0496 32.0791 53.0496 32.626 53.0496 36.9357V36.936C53.0496 41.2459 53.0266 41.784 52.9508 43.4811C52.9243 44.8007 52.6756 46.1027 52.2116 47.3376C51.8026 48.3922 51.1783 49.3499 50.3785 50.1497C49.5788 50.9495 48.621 51.5738 47.5665 51.9828C46.3319 52.4452 45.028 52.6951 43.7099 52.722C42.0251 52.819 41.4729 52.819 37.1648 52.819C32.8566 52.819 32.3186 52.796 30.6196 52.722C29.2989 52.6785 27.9953 52.41 26.7649 51.9281C25.71 51.5198 24.7519 50.896 23.9518 50.0964C23.1516 49.2969 22.5271 48.3393 22.118 47.2847C21.654 46.048 21.4053 44.746 21.3788 43.4264C21.28 41.7381 21.28 41.1894 21.28 36.8813C21.28 32.5713 21.3029 32.0333 21.3788 30.3361C21.4046 29.018 21.6545 27.7138 22.118 26.4796C22.5259 25.4246 23.1499 24.4666 23.9498 23.667C24.7498 22.8673 25.708 22.2438 26.7631 21.8362C27.9959 21.3715 29.2989 21.1209 30.6161 21.0953C32.3009 21 32.8531 21 37.1613 21C41.4694 21 42.0075 21.0212 43.7064 21.0953C45.0246 21.1223 46.3286 21.3729 47.5629 21.8362C48.6178 22.2442 49.5758 22.868 50.3757 23.6676ZM49.5106 46.2738C49.8623 45.3198 50.0479 44.3126 50.0593 43.2959V43.2976H50.0787C50.1545 41.6111 50.1545 41.1488 50.1545 36.8513C50.1545 32.5519 50.1351 32.0809 50.0593 30.4031C50.0428 29.3978 49.8574 28.4025 49.5106 27.4587C49.2455 26.7726 48.8399 26.1494 48.3197 25.6293C47.7996 25.1092 47.1765 24.7035 46.4903 24.4384C45.5471 24.0875 44.5504 23.9019 43.5441 23.8897C41.8381 23.7927 41.3971 23.7927 37.0978 23.7927C32.7984 23.7927 32.3274 23.8139 30.6496 23.8897C29.6441 23.9038 28.6483 24.0893 27.7052 24.4384C26.3132 24.9712 25.2106 26.0668 24.6725 27.4587C24.3209 28.4121 24.1353 29.4188 24.1239 30.4349C24.0304 32.1444 24.0304 32.5837 24.0304 36.883C24.0304 41.1806 24.048 41.6534 24.1239 43.3294C24.1403 44.3347 24.3258 45.3301 24.6725 46.2738C24.9386 46.9612 25.3461 47.585 25.8685 48.105C26.3909 48.625 27.0166 49.0295 27.7052 49.2924C28.6478 49.6431 29.6439 49.8287 30.6496 49.841C32.3574 49.9381 32.7967 49.9381 37.0978 49.9381C41.3953 49.9381 41.8681 49.9187 43.5441 49.841C44.5503 49.828 45.5469 49.6425 46.4903 49.2924C47.1765 49.0278 47.7997 48.6226 48.3199 48.1027C48.8401 47.5829 49.2457 46.9599 49.5106 46.2738ZM45.633 30.315C46.6833 30.315 47.5348 29.4635 47.5348 28.4132C47.5348 27.3628 46.6833 26.5114 45.633 26.5114C44.5826 26.5114 43.7312 27.3628 43.7312 28.4132C43.7312 29.4635 44.5826 30.315 45.633 30.315ZM37.1525 28.7131C34.9889 28.7131 32.914 29.5726 31.3842 31.1024C29.8543 32.6323 28.9948 34.7072 28.9948 36.8708C28.9948 39.0343 29.8543 41.1092 31.3842 42.6391C32.914 44.1689 34.9889 45.0284 37.1525 45.0284C39.316 45.0284 41.3909 44.1689 42.9208 42.6391C44.4506 41.1092 45.3101 39.0343 45.3101 36.8708C45.3101 34.7072 44.4506 32.6323 42.9208 31.1024C41.3909 29.5726 39.316 28.7131 37.1525 28.7131ZM37.1525 42.1686C35.7469 42.1686 34.3989 41.6103 33.4051 40.6164C32.4112 39.6225 31.8528 38.2745 31.8528 36.869C31.8528 35.4634 32.4112 34.1155 33.4051 33.1216C34.3989 32.1277 35.7469 31.5694 37.1525 31.5694C38.558 31.5694 39.906 32.1277 40.8999 33.1216C41.8938 34.1155 42.4521 35.4634 42.4521 36.869C42.4521 38.2745 41.8938 39.6225 40.8999 40.6164C39.906 41.6103 38.558 42.1686 37.1525 42.1686Z" fill="url(#paint0_linear_118_27)"/>
<defs>
<filter id="filter0_bii_118_27" x="-29.72" y="-30" width="133.28" height="133.28" filterUnits="userSpaceOnUse" color-interpolation-filters="sRGB">
<feFlood flood-opacity="0" result="BackgroundImageFix"/>
<feGaussianBlur in="BackgroundImage" stdDeviation="15"/>
<feComposite in2="SourceAlpha" operator="in" result="effect1_backgroundBlur_118_27"/>
<feBlend mode="normal" in="SourceGraphic" in2="effect1_backgroundBlur_118_27" result="shape"/>
<feColorMatrix in="SourceAlpha" type="matrix" values="0 0 0 0 0 0 0 0 0 0 0 0 0 0 0 0 0 0 127 0" result="hardAlpha"/>
<feOffset dy="2"/>
<feGaussianBlur stdDeviation="2"/>
<feComposite in2="hardAlpha" operator="arithmetic" k2="-1" k3="1"/>
<feColorMatrix type="matrix" values="0 0 0 0 1 0 0 0 0 1 0 0 0 0 1 0 0 0 0.1 0"/>
<feBlend mode="normal" in2="shape" result="effect2_innerShadow_118_27"/>
<feColorMatrix in="SourceAlpha" type="matrix" values="0 0 0 0 0 0 0 0 0 0 0 0 0 0 0 0 0 0 127 0" result="hardAlpha"/>
<feOffset dy="-5"/>
<feGaussianBlur stdDeviation="6"/>
<feComposite in2="hardAlpha" operator="arithmetic" k2="-1" k3="1"/>
<feColorMatrix type="matrix" values="0 0 0 0 0.564706 0 0 0 0 0.054902 0 0 0 0 0.690196 0 0 0 0.35 0"/>
<feBlend mode="normal" in2="effect2_innerShadow_118_27" result="effect3_innerShadow_118_27"/>
</filter>
<linearGradient id="paint0_linear_118_27" x1="49.0403" y1="24.6179" x2="25.0422" y2="52.3095" gradientUnits="userSpaceOnUse">
<stop offset="0.17301" stop-color="#4967D5"/>
<stop offset="0.688933" stop-color="#DB2E7D"/>
<stop offset="1" stop-color="#FFAF00"/>
</linearGradient>
</defs>
</svg>
