<svg width="74" height="74" viewBox="0 0 74 74" fill="none" xmlns="http://www.w3.org/2000/svg">
<g filter="url(#filter0_bii_133_523)">
<circle cx="36.64" cy="36.64" r="36.64" fill="white" fill-opacity="0.2"/>
</g>
<path d="M21.476 18.2288C19.6441 19.2937 16.0346 23.3539 16 24.4187V26.1814C16 28.4158 18.1332 30.3794 20.0696 30.3794C22.3946 30.3794 24.3322 28.4924 24.3326 26.253C24.3326 28.4922 26.2036 30.3794 28.5292 30.3794C30.8547 30.3794 32.6657 28.4924 32.6657 26.253C32.6657 28.4922 34.6545 30.3794 36.9796 30.3794H37.0214C39.3464 30.3794 41.3371 28.4924 41.3371 26.253C41.3371 28.4922 43.1474 30.3794 45.4725 30.3794C47.7975 30.3794 49.6686 28.4924 49.6686 26.253C49.6686 28.4922 51.6061 30.3794 53.9312 30.3794C55.8668 30.3794 58 28.416 58 26.1814V24.4187C57.9639 23.3539 54.3548 19.2937 52.5236 18.2288C46.8306 18.0329 42.8815 17.9993 36.9986 18C31.1178 18.0004 23.096 18.0902 21.4756 18.2288H21.476ZM32.6364 29.3271C32.4141 29.7066 32.1386 30.0537 31.8181 30.3586C30.9084 31.2322 29.6846 31.7211 28.4103 31.72C27.0835 31.72 25.8733 31.1992 24.9957 30.3582C24.6785 30.0532 24.4372 29.727 24.215 29.3472V29.3479C23.9946 29.7285 23.685 30.0543 23.3678 30.3597C22.4557 31.2332 21.2302 31.7217 19.9543 31.7205C19.7947 31.7205 19.6295 31.6778 19.4946 31.6331C19.3084 33.5394 19.2287 35.3602 19.2013 36.69V36.6974C19.1975 37.3725 19.1947 37.9268 19.1911 38.6967C19.2271 42.6972 18.7865 51.6597 20.9918 53.8618C24.4091 54.6429 30.6974 54.9981 37.0069 55H37.0075C43.3167 54.9981 49.6053 54.6429 53.0226 53.8636C55.228 51.6612 54.7873 42.6987 54.8234 38.6995C54.8202 37.9296 54.8169 37.375 54.8133 36.7002V36.6928C54.7848 35.3645 54.706 33.5432 54.5189 31.6372C54.384 31.6818 54.2174 31.7252 54.0573 31.7252C52.7812 31.7264 51.5554 31.2379 50.6429 30.3645C50.3247 30.0586 50.016 29.7327 49.7951 29.3528L49.7941 29.3515C49.5725 29.7309 49.331 30.0577 49.0128 30.3625C48.1353 31.2031 46.9252 31.7239 45.5988 31.7239C44.2723 31.7239 43.0686 31.2031 42.191 30.3625C41.8707 30.0574 41.5951 29.7103 41.3723 29.331C41.1525 29.7101 40.8798 30.0573 40.5619 30.3625C39.6493 31.2365 38.4231 31.7252 37.1466 31.7239C37.1002 31.7239 37.0535 31.722 37.0079 31.7202H37.0064C36.9602 31.722 36.914 31.7239 36.8677 31.7239C35.5407 31.7239 34.3305 31.2031 33.4527 30.3625C33.1346 30.0575 32.8616 29.7104 32.6416 29.3314L32.6364 29.3271ZM29.1295 33.7671L29.1291 33.7686H29.1329C30.5215 33.7715 31.7562 33.7686 33.2834 35.4021C34.4877 35.2788 35.7434 35.2168 37.0028 35.2189H37.0047C38.2641 35.217 39.5197 35.2802 40.724 35.403C42.2531 33.7701 43.4859 33.7738 44.8745 33.7701H44.8783V33.7682C45.5355 33.7682 48.1588 33.7682 49.9881 38.7972L51.9537 45.6971C53.4097 50.8303 51.4878 50.9567 49.0905 50.9605C45.5346 50.8321 43.5667 48.3028 43.5667 45.7753C41.5987 46.0914 39.3022 46.2495 37.0066 46.2495H37.0056C34.7098 46.2495 32.414 46.0914 30.4465 45.7753C30.4465 48.3028 28.4785 50.8303 24.9229 50.9605C22.5257 50.9567 20.6034 50.8303 22.0598 45.699L24.0239 38.799C25.8532 33.7701 28.4783 33.7701 29.1337 33.7701L29.1295 33.7671ZM37.0012 37.7192V37.7205C36.998 37.7237 33.2587 41.0861 32.5867 42.2819L35.0352 42.186V44.2764C35.0352 44.3744 36.018 44.3346 37.0012 44.2902H37.0026C37.986 44.3348 38.9686 44.3744 38.9686 44.2766V42.1862L41.4171 42.2817C40.7451 41.0859 37.0026 37.7205 37.0026 37.7205V37.7194L37.0022 37.7198L37.0012 37.7192Z" fill="#FA5C5C"/>
<defs>
<filter id="filter0_bii_133_523" x="-30" y="-30" width="133.28" height="133.28" filterUnits="userSpaceOnUse" color-interpolation-filters="sRGB">
<feFlood flood-opacity="0" result="BackgroundImageFix"/>
<feGaussianBlur in="BackgroundImage" stdDeviation="15"/>
<feComposite in2="SourceAlpha" operator="in" result="effect1_backgroundBlur_133_523"/>
<feBlend mode="normal" in="SourceGraphic" in2="effect1_backgroundBlur_133_523" result="shape"/>
<feColorMatrix in="SourceAlpha" type="matrix" values="0 0 0 0 0 0 0 0 0 0 0 0 0 0 0 0 0 0 127 0" result="hardAlpha"/>
<feOffset dy="2"/>
<feGaussianBlur stdDeviation="2"/>
<feComposite in2="hardAlpha" operator="arithmetic" k2="-1" k3="1"/>
<feColorMatrix type="matrix" values="0 0 0 0 1 0 0 0 0 1 0 0 0 0 1 0 0 0 0.1 0"/>
<feBlend mode="normal" in2="shape" result="effect2_innerShadow_133_523"/>
<feColorMatrix in="SourceAlpha" type="matrix" values="0 0 0 0 0 0 0 0 0 0 0 0 0 0 0 0 0 0 127 0" result="hardAlpha"/>
<feOffset dy="-5"/>
<feGaussianBlur stdDeviation="6"/>
<feComposite in2="hardAlpha" operator="arithmetic" k2="-1" k3="1"/>
<feColorMatrix type="matrix" values="0 0 0 0 0.980392 0 0 0 0 0.360784 0 0 0 0 0.360784 0 0 0 0.4 0"/>
<feBlend mode="normal" in2="effect2_innerShadow_133_523" result="effect3_innerShadow_133_523"/>
</filter>
</defs>
</svg>
