<svg width="74" height="74" viewBox="0 0 74 74" fill="none" xmlns="http://www.w3.org/2000/svg">
<g filter="url(#filter0_bii_133_513)">
<circle cx="36.9178" cy="36.6393" r="36.6393" fill="white" fill-opacity="0.2"/>
</g>
<path fill-rule="evenodd" clip-rule="evenodd" d="M31.3973 25.2457C31.3973 27.0938 29.8991 28.592 28.051 28.592C26.2029 28.592 24.7047 27.0938 24.7047 25.2457C24.7047 23.3976 26.2029 21.8994 28.051 21.8994C29.8991 21.8994 31.3973 23.3976 31.3973 25.2457ZM34.5571 49.6931V31.1278H40.0905V33.6666H40.1685C40.9378 32.2091 42.8189 30.669 45.6254 30.669C51.4707 30.669 52.5474 34.5123 52.5474 39.5134V49.6946H46.78V40.6651C46.78 38.5132 46.7433 35.7435 43.7809 35.7435C40.7772 35.7435 40.3214 38.0896 40.3214 40.5121V49.6931H34.5571ZM30.937 31.1278H25.1636V49.6931H30.937V31.1278Z" fill="url(#paint0_linear_133_513)"/>
<defs>
<filter id="filter0_bii_133_513" x="-29.7215" y="-30" width="133.279" height="133.279" filterUnits="userSpaceOnUse" color-interpolation-filters="sRGB">
<feFlood flood-opacity="0" result="BackgroundImageFix"/>
<feGaussianBlur in="BackgroundImage" stdDeviation="15"/>
<feComposite in2="SourceAlpha" operator="in" result="effect1_backgroundBlur_133_513"/>
<feBlend mode="normal" in="SourceGraphic" in2="effect1_backgroundBlur_133_513" result="shape"/>
<feColorMatrix in="SourceAlpha" type="matrix" values="0 0 0 0 0 0 0 0 0 0 0 0 0 0 0 0 0 0 127 0" result="hardAlpha"/>
<feOffset dy="2"/>
<feGaussianBlur stdDeviation="2"/>
<feComposite in2="hardAlpha" operator="arithmetic" k2="-1" k3="1"/>
<feColorMatrix type="matrix" values="0 0 0 0 1 0 0 0 0 1 0 0 0 0 1 0 0 0 0.1 0"/>
<feBlend mode="normal" in2="shape" result="effect2_innerShadow_133_513"/>
<feColorMatrix in="SourceAlpha" type="matrix" values="0 0 0 0 0 0 0 0 0 0 0 0 0 0 0 0 0 0 127 0" result="hardAlpha"/>
<feOffset dy="-5"/>
<feGaussianBlur stdDeviation="6"/>
<feComposite in2="hardAlpha" operator="arithmetic" k2="-1" k3="1"/>
<feColorMatrix type="matrix" values="0 0 0 0 0.0392157 0 0 0 0 0.4 0 0 0 0 0.760784 0 0 0 0.35 0"/>
<feBlend mode="normal" in2="effect2_innerShadow_133_513" result="effect3_innerShadow_133_513"/>
</filter>
<linearGradient id="paint0_linear_133_513" x1="48.8255" y1="20.9808" x2="20.8324" y2="42.245" gradientUnits="userSpaceOnUse">
<stop stop-color="#0A66C2"/>
<stop offset="1" stop-color="#00CDC1"/>
</linearGradient>
</defs>
</svg>
