<svg width="231" height="74" viewBox="0 0 231 74" fill="none" xmlns="http://www.w3.org/2000/svg">
<path d="M15.2051 11.6968H28.2349C29.0698 12.9126 29.4873 14.3921 29.4873 16.1353C29.4873 17.8638 29.1284 19.27 28.4106 20.354H27.5098V26.9458C24.624 29.4507 20.8154 30.7031 16.084 30.7031C13.1982 30.7031 10.6348 30.1904 8.39355 29.165C5.94727 28.0664 4.05029 26.4624 2.70264 24.353C1.22314 22.0386 0.483398 19.1968 0.483398 15.8276C0.483398 11.0376 1.91895 7.33154 4.79004 4.70947C7.51465 2.20459 11.2061 0.952148 15.8643 0.952148C18.1641 0.952148 20.332 1.29639 22.3682 1.98486C24.4189 2.67334 26.0376 3.53027 27.2241 4.55566C27.2241 5.43457 27.1143 6.51123 26.8945 7.78564C26.6895 9.06006 26.4258 10.0342 26.1035 10.708H14.5239C14.0552 11.2061 13.6084 11.9238 13.1836 12.8613C12.7734 13.7988 12.5684 14.8755 12.5684 16.0913C12.5684 17.7612 12.9858 19.0723 13.8208 20.0244C14.5532 20.8887 15.4907 21.3208 16.6333 21.3208C17.1021 21.3208 17.3364 21.1597 17.3364 20.8374V20.332H17.0947C16.1279 20.332 15.3223 19.9585 14.6777 19.2114C14.0479 18.4497 13.7329 17.3657 13.7329 15.9595C13.7329 14.2017 14.2236 12.7808 15.2051 11.6968ZM39.5042 30.2856C37.761 30.2856 36.3694 29.9707 35.3294 29.3408C34.1722 28.6816 33.5936 27.7075 33.5936 26.4185V15.1025C32.7293 13.8867 32.2972 12.3926 32.2972 10.6201C32.2972 8.83301 32.7293 7.2876 33.5936 5.98389H36.9554C38.6839 5.98389 39.9217 6.54053 40.6688 7.65381C40.3025 8.06396 39.9803 8.58398 39.702 9.21387C39.4236 9.84375 39.2845 10.2979 39.2845 10.5762C39.2845 10.8398 39.3504 11.0376 39.4822 11.1694C39.6287 11.3013 39.8338 11.3672 40.0975 11.3672C40.6102 9.33105 41.5843 7.83691 43.0198 6.88477C44.2063 6.0791 45.6712 5.67627 47.4144 5.67627C49.5823 5.67627 51.2815 6.1377 52.512 7.06055C52.9515 8.23242 53.1712 9.66797 53.1712 11.3672C53.1712 13.0518 52.8343 14.5825 52.1604 15.9595C51.6624 16.2231 50.9739 16.4502 50.095 16.6406C49.2161 16.8164 48.3299 16.9043 47.4363 16.9043C46.5428 16.9043 45.7371 16.8457 45.0193 16.7285C44.3162 16.5967 43.8035 16.4795 43.4813 16.377C43.3641 16.4941 43.3055 16.6626 43.3055 16.8823C43.3055 17.1021 43.4446 17.2705 43.7229 17.3877C44.0159 17.4902 44.4993 17.6074 45.1731 17.7393V28.7695C43.5765 29.7803 41.6868 30.2856 39.5042 30.2856ZM69.4503 30.6812C65.3927 30.6812 62.192 29.5532 59.8482 27.2974C57.4459 25.0269 56.2447 21.9214 56.2447 17.981C56.2447 14.0259 57.4825 10.8911 59.9581 8.57666C62.2433 6.42334 65.1363 5.34668 68.6373 5.34668C72.1383 5.34668 74.9435 6.31348 77.0528 8.24707C79.1769 10.166 80.2389 12.5317 80.2389 15.3442C80.2389 17.8491 79.3673 19.7388 77.6241 21.0132C76.0128 22.2144 73.8155 22.8149 71.0323 22.8149C68.9522 22.8149 67.1944 22.3828 65.7589 21.5186C65.6417 21.6064 65.5831 21.7676 65.5831 22.002C65.5831 22.4414 66.1617 22.8442 67.3189 23.2104C68.4762 23.606 69.7872 23.8037 71.2521 23.8037C72.7315 23.8037 74.0719 23.6206 75.273 23.2544C76.4889 22.8735 77.463 22.4268 78.1954 21.9141C78.547 22.2217 78.8253 22.793 79.0304 23.6279C79.2501 24.4482 79.36 25.2026 79.36 25.8911C79.36 26.5649 79.294 27.1655 79.1622 27.6929C78.0196 28.6597 76.8478 29.3481 75.6466 29.7583C73.9474 30.3735 71.8819 30.6812 69.4503 30.6812ZM69.1646 15.8057C69.8971 15.8057 70.2633 15.5273 70.2633 14.9707C70.2633 14.4434 69.8751 14.1797 69.0987 14.1797C68.3224 14.1797 67.8756 14.5972 67.7584 15.4321C68.1686 15.6812 68.6373 15.8057 69.1646 15.8057ZM97.0233 30.6812C92.9657 30.6812 89.765 29.5532 87.4213 27.2974C85.0189 25.0269 83.8178 21.9214 83.8178 17.981C83.8178 14.0259 85.0556 10.8911 87.5312 8.57666C89.8163 6.42334 92.7094 5.34668 96.2104 5.34668C99.7113 5.34668 102.517 6.31348 104.626 8.24707C106.75 10.166 107.812 12.5317 107.812 15.3442C107.812 17.8491 106.94 19.7388 105.197 21.0132C103.586 22.2144 101.389 22.8149 98.6054 22.8149C96.5253 22.8149 94.7675 22.3828 93.3319 21.5186C93.2147 21.6064 93.1562 21.7676 93.1562 22.002C93.1562 22.4414 93.7348 22.8442 94.892 23.2104C96.0492 23.606 97.3603 23.8037 98.8251 23.8037C100.305 23.8037 101.645 23.6206 102.846 23.2544C104.062 22.8735 105.036 22.4268 105.768 21.9141C106.12 22.2217 106.398 22.793 106.603 23.6279C106.823 24.4482 106.933 25.2026 106.933 25.8911C106.933 26.5649 106.867 27.1655 106.735 27.6929C105.593 28.6597 104.421 29.3481 103.22 29.7583C101.52 30.3735 99.455 30.6812 97.0233 30.6812ZM96.7377 15.8057C97.4701 15.8057 97.8363 15.5273 97.8363 14.9707C97.8363 14.4434 97.4481 14.1797 96.6718 14.1797C95.8954 14.1797 95.4486 14.5972 95.3314 15.4321C95.7416 15.6812 96.2104 15.8057 96.7377 15.8057ZM135.121 19.1235C135.121 20.1782 135.238 21.0278 135.473 21.6724C135.707 22.3169 136.117 22.8223 136.703 23.1885C136.718 23.2617 136.725 23.4009 136.725 23.606V24.0015C136.725 26.0229 136.139 27.5977 134.967 28.7256C133.81 29.8389 132.309 30.3955 130.463 30.3955C128.632 30.3955 127.145 29.8755 126.003 28.8354C124.67 27.6489 124.003 25.8472 124.003 23.4302C124.003 22.4048 124.047 21.5039 124.135 20.7275C124.238 19.9365 124.303 19.3726 124.333 19.0356C124.377 18.6987 124.421 18.3838 124.465 18.0908C124.508 17.7979 124.53 17.3657 124.53 16.7944C124.53 16.2231 124.45 15.813 124.289 15.564C124.142 15.3149 123.93 15.1904 123.652 15.1904C123.388 15.1904 123.154 15.249 122.948 15.3662L123.234 18.9478C122.97 20.4272 122.839 21.9946 122.839 23.6499C122.839 25.3052 123.212 26.814 123.959 28.1763C122.524 29.6558 120.509 30.3955 117.917 30.3955C116.437 30.3955 115.155 30.0073 114.071 29.231C112.812 28.3521 112.182 27.1875 112.182 25.7373V15.1025C111.318 13.8867 110.885 12.3926 110.885 10.6201C110.885 8.83301 111.318 7.2876 112.182 5.98389H116.093C117.133 5.98389 118.019 6.37207 118.752 7.14844C118.107 7.74902 117.785 8.24707 117.785 8.64258C117.785 9.09668 118.041 9.32373 118.554 9.32373C119.198 8.21045 120.18 7.2876 121.498 6.55518C122.831 5.82275 124.34 5.45654 126.025 5.45654C128.559 5.45654 130.617 6.0791 132.199 7.32422C134.191 8.8916 135.187 11.3232 135.187 14.6191L135.121 19.1235ZM150.697 18.9038V19.4092C150.697 19.6436 150.705 19.812 150.719 19.9146C150.866 19.9878 151.027 20.0244 151.203 20.0244C151.627 20.0244 151.84 19.7021 151.84 19.0576C151.84 16.9043 151.957 14.6704 152.191 12.356C152.44 10.0269 152.704 8.23242 152.982 6.97266C154.169 6.1084 155.751 5.67627 157.729 5.67627C159.706 5.67627 161.229 6.06445 162.299 6.84082C163.383 7.60254 163.925 8.52539 163.925 9.60938C163.925 10.0635 163.654 11.9385 163.112 15.2344C162.511 18.5889 161.742 22.1191 160.805 25.8252C160.614 26.5723 160.27 27.6196 159.772 28.9673C159.289 30.3149 158.769 31.4355 158.212 32.3291C156.469 35.0977 154.315 36.8115 151.752 37.4707C150.551 37.7783 149.342 37.9321 148.126 37.9321C145.768 37.9321 143.944 37.3462 142.655 36.1743C141.469 35.1196 140.875 33.8086 140.875 32.2412C140.875 30.6885 141.337 29.2236 142.26 27.8467C142.479 27.7881 142.882 27.7588 143.468 27.7588C144.054 27.7588 144.787 27.832 145.666 27.9785C148.097 28.4326 149.335 28.6597 149.379 28.6597C149.481 28.6743 149.591 28.6963 149.708 28.7256C149.84 28.7402 150.009 28.7476 150.214 28.7476C150.419 28.7476 150.595 28.689 150.741 28.5718C150.888 28.4546 150.961 28.2202 150.961 27.8687L145.775 26.8799C144.501 26.3525 143.395 25.2466 142.458 23.562C141.3 21.4819 140.517 18.6621 140.106 15.1025C139.14 13.8428 138.656 12.334 138.656 10.5762C138.656 8.81836 139.096 7.2876 139.975 5.98389H145.622C147.511 5.98389 148.925 6.52588 149.862 7.60986C150.551 8.41553 150.99 9.59473 151.181 11.1475C150.858 13.6963 150.697 16.2817 150.697 18.9038ZM15.2051 54.6968H28.2349C29.0698 55.9126 29.4873 57.3921 29.4873 59.1353C29.4873 60.8638 29.1284 62.27 28.4106 63.354H27.5098V69.9458C24.624 72.4507 20.8154 73.7031 16.084 73.7031C13.1982 73.7031 10.6348 73.1904 8.39355 72.165C5.94727 71.0664 4.05029 69.4624 2.70264 67.353C1.22314 65.0386 0.483398 62.1968 0.483398 58.8276C0.483398 54.0376 1.91895 50.3315 4.79004 47.7095C7.51465 45.2046 11.2061 43.9521 15.8643 43.9521C18.1641 43.9521 20.332 44.2964 22.3682 44.9849C24.4189 45.6733 26.0376 46.5303 27.2241 47.5557C27.2241 48.4346 27.1143 49.5112 26.8945 50.7856C26.6895 52.0601 26.4258 53.0342 26.1035 53.708H14.5239C14.0552 54.2061 13.6084 54.9238 13.1836 55.8613C12.7734 56.7988 12.5684 57.8755 12.5684 59.0913C12.5684 60.7612 12.9858 62.0723 13.8208 63.0244C14.5532 63.8887 15.4907 64.3208 16.6333 64.3208C17.1021 64.3208 17.3364 64.1597 17.3364 63.8374V63.332H17.0947C16.1279 63.332 15.3223 62.9585 14.6777 62.2114C14.0479 61.4497 13.7329 60.3657 13.7329 58.9595C13.7329 57.2017 14.2236 55.7808 15.2051 54.6968ZM54.7093 62.1235C54.7093 63.1782 54.8265 64.0278 55.0608 64.6724C55.2952 65.3169 55.7054 65.8223 56.2913 66.1885C56.306 66.2617 56.3133 66.4009 56.3133 66.606V67.0015C56.3133 69.0815 55.6834 70.7002 54.4236 71.8574C53.3104 72.8828 51.9334 73.3955 50.2928 73.3955C49.1795 73.3955 48.1614 73.1318 47.2386 72.6045C46.3157 72.0771 45.6565 71.3154 45.261 70.3193C44.763 70.3193 44.514 70.561 44.514 71.0444C44.514 71.4546 44.7703 71.916 45.283 72.4287C44.3309 73.0732 42.8953 73.3955 40.9764 73.3955C38.2664 73.3955 36.0984 72.6631 34.4725 71.1982C32.8611 69.7188 32.0555 67.6606 32.0555 65.0239C32.0555 62.3726 32.9124 60.3218 34.6263 58.8716C36.1937 57.5679 38.2225 56.916 40.7127 56.916C41.5623 56.916 42.3826 56.9746 43.1736 57.0918C43.701 57.1943 43.9866 57.2529 44.0306 57.2676C44.0745 57.1211 44.0965 56.9966 44.0965 56.894C44.0965 56.5132 43.7742 56.2568 43.1297 56.125C42.4852 55.9932 41.6429 55.9272 40.6028 55.9272C38.3909 55.9272 36.5013 56.374 34.9339 57.2676C34.2161 56.0518 33.8572 54.5137 33.8572 52.6533C33.8572 51.5986 33.9891 50.8149 34.2527 50.3022C35.3074 49.8188 36.6478 49.394 38.2737 49.0278C39.8997 48.647 41.6136 48.4565 43.4153 48.4565C47.136 48.4565 49.9485 49.2695 51.8528 50.8955C53.7571 52.5215 54.7093 54.8286 54.7093 57.8169V62.1235ZM43.3055 63.2002C42.6902 63.2002 42.3826 63.4785 42.3826 64.0352C42.3826 64.5625 42.7415 64.8262 43.4593 64.8262C43.9573 64.8262 44.3235 64.709 44.5579 64.4746C44.7923 64.2256 44.9095 63.8008 44.9095 63.2002C44.9095 63.2002 44.3748 63.2002 43.3055 63.2002ZM95.5099 62.1235C95.5099 63.1929 95.6271 64.0645 95.8614 64.7383C96.0958 65.4121 96.506 65.9321 97.0919 66.2983C97.1065 66.3716 97.1139 66.4961 97.1139 66.6719V67.0015C97.1139 69.0083 96.5279 70.5757 95.3561 71.7036C94.1842 72.8315 92.6681 73.3955 90.8077 73.3955C88.962 73.3955 87.4752 72.8901 86.3473 71.8794C85.0143 70.7075 84.3478 68.9131 84.3478 66.4961V59.5527C84.3478 58.5713 84.0255 58.0806 83.381 58.0806C83.1319 58.0806 82.9342 58.1392 82.7877 58.2563L83.1832 61.5303V66.4961C83.1832 68.4883 83.5128 69.9971 84.172 71.0225C83.4688 71.7695 82.5899 72.3555 81.5353 72.7803C80.4952 73.1904 79.4332 73.3955 78.3492 73.3955C76.5914 73.3955 75.2291 72.9707 74.2623 72.1211C73.0904 71.0957 72.5045 69.4771 72.5045 67.2651V59.5527C72.5045 58.5713 72.1822 58.0806 71.5377 58.0806C71.2887 58.0806 71.0909 58.1392 70.9444 58.2563L71.3399 61.5303V67.353C71.3399 68.9937 71.5597 70.2607 71.9991 71.1543C70.5636 72.6338 68.5494 73.3735 65.9566 73.3735C64.4186 73.3735 63.1222 72.9854 62.0675 72.209C60.8517 71.3154 60.2438 70.1143 60.2438 68.6055V58.1025C59.3795 56.8867 58.9474 55.3926 58.9474 53.6201C58.9474 51.833 59.3795 50.2876 60.2438 48.9839H65.5392C66.5792 48.9839 67.4654 49.3721 68.1979 50.1484C67.5533 50.749 67.2311 51.2471 67.2311 51.6426C67.2311 52.0967 67.4874 52.3237 68.0001 52.3237C68.6446 51.2104 69.5309 50.3242 70.6588 49.665C71.9771 48.918 73.5226 48.5444 75.295 48.5444C76.6427 48.5444 77.8219 48.8301 78.8326 49.4014C79.858 49.9727 80.6197 50.6318 81.1178 51.3789C81.8063 50.4414 82.6998 49.7383 83.7984 49.2695C84.9117 48.7861 86.0689 48.5444 87.2701 48.5444C89.9215 48.5444 91.9796 49.3647 93.4444 51.0054C94.88 52.646 95.5978 54.8945 95.5978 57.751L95.5099 62.1235ZM113.283 73.6812C109.225 73.6812 106.025 72.5532 103.681 70.2974C101.279 68.0269 100.078 64.9214 100.078 60.981C100.078 57.0259 101.315 53.8911 103.791 51.5767C106.076 49.4233 108.969 48.3467 112.47 48.3467C115.971 48.3467 118.776 49.3135 120.886 51.2471C123.01 53.166 124.072 55.5317 124.072 58.3442C124.072 60.8491 123.2 62.7388 121.457 64.0132C119.846 65.2144 117.648 65.8149 114.865 65.8149C112.785 65.8149 111.027 65.3828 109.592 64.5186C109.475 64.6064 109.416 64.7676 109.416 65.002C109.416 65.4414 109.995 65.8442 111.152 66.2104C112.309 66.606 113.62 66.8037 115.085 66.8037C116.564 66.8037 117.905 66.6206 119.106 66.2544C120.322 65.8735 121.296 65.4268 122.028 64.9141C122.38 65.2217 122.658 65.793 122.863 66.6279C123.083 67.4482 123.193 68.2026 123.193 68.8911C123.193 69.5649 123.127 70.1655 122.995 70.6929C121.852 71.6597 120.681 72.3481 119.479 72.7583C117.78 73.3735 115.715 73.6812 113.283 73.6812ZM112.997 58.8057C113.73 58.8057 114.096 58.5273 114.096 57.9707C114.096 57.4434 113.708 57.1797 112.932 57.1797C112.155 57.1797 111.708 57.5972 111.591 58.4321C112.001 58.6812 112.47 58.8057 112.997 58.8057ZM161.947 62.9585C161.947 66.0493 160.966 68.5615 159.003 70.4951C156.923 72.5752 154.052 73.6152 150.39 73.6152C148.295 73.6152 146.31 73.0732 144.435 71.9893C143 71.1689 141.908 70.2241 141.161 69.1548C141.015 68.2612 140.941 67.4482 140.941 66.7158C140.941 64.3281 141.667 62.4971 143.117 61.2227C144.289 60.1973 145.731 59.6846 147.445 59.6846C148.749 59.6846 149.936 60.0288 151.005 60.7173C152.089 61.4497 152.887 62.4604 153.4 63.7495C153.869 63.7495 154.103 63.5078 154.103 63.0244C154.103 62.7754 153.993 62.4458 153.773 62.0356C153.568 61.6255 153.268 61.2153 152.873 60.8052C151.833 59.7358 150.58 59.0767 149.115 58.8276V46.1714C149.848 45.6294 150.771 45.1753 151.884 44.8091C152.997 44.4429 154.264 44.2598 155.685 44.2598C157.106 44.2598 158.388 44.5088 159.53 45.0068C161.142 45.7393 161.947 46.8379 161.947 48.3027V62.9585ZM188.268 62.1235C188.268 63.1782 188.385 64.0278 188.619 64.6724C188.854 65.3169 189.264 65.8223 189.85 66.1885C189.865 66.2617 189.872 66.4009 189.872 66.606V67.0015C189.872 69.0815 189.242 70.7002 187.982 71.8574C186.869 72.8828 185.492 73.3955 183.851 73.3955C182.738 73.3955 181.72 73.1318 180.797 72.6045C179.874 72.0771 179.215 71.3154 178.82 70.3193C178.322 70.3193 178.073 70.561 178.073 71.0444C178.073 71.4546 178.329 71.916 178.842 72.4287C177.889 73.0732 176.454 73.3955 174.535 73.3955C171.825 73.3955 169.657 72.6631 168.031 71.1982C166.42 69.7188 165.614 67.6606 165.614 65.0239C165.614 62.3726 166.471 60.3218 168.185 58.8716C169.752 57.5679 171.781 56.916 174.271 56.916C175.121 56.916 175.941 56.9746 176.732 57.0918C177.26 57.1943 177.545 57.2529 177.589 57.2676C177.633 57.1211 177.655 56.9966 177.655 56.894C177.655 56.5132 177.333 56.2568 176.688 56.125C176.044 55.9932 175.201 55.9272 174.161 55.9272C171.95 55.9272 170.06 56.374 168.492 57.2676C167.775 56.0518 167.416 54.5137 167.416 52.6533C167.416 51.5986 167.548 50.8149 167.811 50.3022C168.866 49.8188 170.206 49.394 171.832 49.0278C173.458 48.647 175.172 48.4565 176.974 48.4565C180.695 48.4565 183.507 49.2695 185.411 50.8955C187.316 52.5215 188.268 54.8286 188.268 57.8169V62.1235ZM176.864 63.2002C176.249 63.2002 175.941 63.4785 175.941 64.0352C175.941 64.5625 176.3 64.8262 177.018 64.8262C177.516 64.8262 177.882 64.709 178.117 64.4746C178.351 64.2256 178.468 63.8008 178.468 63.2002C178.468 63.2002 177.933 63.2002 176.864 63.2002ZM229.068 62.1235C229.068 63.1929 229.186 64.0645 229.42 64.7383C229.654 65.4121 230.065 65.9321 230.65 66.2983C230.665 66.3716 230.672 66.4961 230.672 66.6719V67.0015C230.672 69.0083 230.087 70.5757 228.915 71.7036C227.743 72.8315 226.227 73.3955 224.366 73.3955C222.521 73.3955 221.034 72.8901 219.906 71.8794C218.573 70.7075 217.906 68.9131 217.906 66.4961V59.5527C217.906 58.5713 217.584 58.0806 216.94 58.0806C216.691 58.0806 216.493 58.1392 216.346 58.2563L216.742 61.5303V66.4961C216.742 68.4883 217.071 69.9971 217.731 71.0225C217.027 71.7695 216.149 72.3555 215.094 72.7803C214.054 73.1904 212.992 73.3955 211.908 73.3955C210.15 73.3955 208.788 72.9707 207.821 72.1211C206.649 71.0957 206.063 69.4771 206.063 67.2651V59.5527C206.063 58.5713 205.741 58.0806 205.096 58.0806C204.847 58.0806 204.65 58.1392 204.503 58.2563L204.899 61.5303V67.353C204.899 68.9937 205.118 70.2607 205.558 71.1543C204.122 72.6338 202.108 73.3735 199.515 73.3735C197.977 73.3735 196.681 72.9854 195.626 72.209C194.41 71.3154 193.802 70.1143 193.802 68.6055V58.1025C192.938 56.8867 192.506 55.3926 192.506 53.6201C192.506 51.833 192.938 50.2876 193.802 48.9839H199.098C200.138 48.9839 201.024 49.3721 201.756 50.1484C201.112 50.749 200.79 51.2471 200.79 51.6426C200.79 52.0967 201.046 52.3237 201.559 52.3237C202.203 51.2104 203.089 50.3242 204.217 49.665C205.536 48.918 207.081 48.5444 208.854 48.5444C210.201 48.5444 211.38 48.8301 212.391 49.4014C213.417 49.9727 214.178 50.6318 214.676 51.3789C215.365 50.4414 216.258 49.7383 217.357 49.2695C218.47 48.7861 219.628 48.5444 220.829 48.5444C223.48 48.5444 225.538 49.3647 227.003 51.0054C228.439 52.646 229.156 54.8945 229.156 57.751L229.068 62.1235Z" fill="#013A1F"/>
</svg>
