<svg xmlns="http://www.w3.org/2000/svg" viewBox="0 0 440.22 569.78"><defs><style>.cls-1{fill:#8dc26a;}.cls-2{fill:#fff;}.cls-3{fill:#2f8c38;}.cls-4{fill:#9eca7f;}.cls-5{fill:#2e8c36;}</style></defs><g id="katman_2" data-name="katman 2"><g id="Layer_3" data-name="Layer 3"><path class="cls-1" d="M439.77,295.48c-1.71-17-.85-29.93-9.53-54.42S407.11,203.31,395,190.94s-35.72-24.88-35.72-24.88l-73.85-18.87s-17.21-1.66-26.65-6.63c-25.38-12.89-44.6-38.78-48.09-55.36a74.43,74.43,0,0,1,1.53-35.37c1.36-4.68,17.6-37.84,18.24-39.18s2.43-9.5-6.82-10.27-15,1.07-36.59,4.47-49.48,18.53-68.53,29.76S71.41,78.14,63.76,88.86s-23.3,44.89-29.93,61.73a145.19,145.19,0,0,0-9.7,54.08c.17,18.54,17.69,54.42,17.69,54.42L54,265.75,96.92,303s109.52,84.7,149.66,90.82c38.17,5.82,140.06-14.24,152.13-19.29.48.7,1,.94,1.43.41,2.21-2.55,27.21-32.65,27.21-32.65S441.47,312.49,439.77,295.48Z"/><path class="cls-2" d="M219.24,4S135.7,20.59,118.34,50.84s6.15,49.45,6.15,49.45,3.61,3.26,5.18,3.26c.52-2.18,2.89-11.75,6.27-17.11s11.25-16.6,14.38-19.16,8.6-7.36,8.6-7.36a3.37,3.37,0,0,1,3.94.15c1.93,1.55-.4,4.81-.4,4.81s-8,5.51-13,12.72-8.6,9.7-12,20.56a102.15,102.15,0,0,0-4.18,24c0,1.79,3.86,5.12,7.15,0,.16-4.5.48-10.31.48-10.31a3.61,3.61,0,0,1,2.33-2.49c1.77-.38,4.58,1.17,8,1.71s20.41,2.79,32.23-5.12a54.91,54.91,0,0,0,18.32-20.55c1-2.1-.2-35.92,3.78-42.55S219.24,4,219.24,4Z"/><path class="cls-3" d="M395.12,362.49s20.41-22.71,25-33.17,4.68-11.56,6.55-21.42,6.29-59.53-30.78-98.81-54.08-34.35-54.08-34.35S258.9,153.82,254.57,152,214.39,129.2,202,96s5.61-65.81,5.61-65.81l8.8-16.58s.89-2.24-1.59-1.92S176.64,13.9,149.73,30s-32,19.65-32,19.65A183.82,183.82,0,0,0,96.05,68.1a191.25,191.25,0,0,0-29,37.38c-7.91,13.2-38.32,99.7-30.53,76.91h0s-6.8,31.12,12.07,59S65.8,272.18,65.8,272.18L51,281a245.1,245.1,0,0,1-22.38-54.6c-2.24-8.25-3.75-13.89-4.48-21.77-.86-9.37-1.89-24.67,9.7-54.08,10.54-26.75,16.72-42,29.93-61.73,7.4-11.07,16.17-24,31.53-37.39,8.21-7.15,14.89-11.48,23.23-16.86,25.07-16.21,45.4-23.46,51.21-25.5,4.9-1.73,10.34-3.14,21.22-6,0,0,17-4.43,32.69-2.75,1.53.17,4.33.58,6,2.69,2.19,2.74,1.25,6.68.82,7.58-.64,1.34-16.88,34.5-18.24,39.18a74.43,74.43,0,0,0-1.53,35.37c3.49,16.58,22.71,42.47,48.09,55.36,9.44,5,26.65,6.63,26.65,6.63l73.85,18.87s23.6,12.5,35.72,24.88c4.77,4.87,24.63,23.67,35.24,50.12a161.36,161.36,0,0,1,6.58,21,99,99,0,0,1,3.32,20.42,96.19,96.19,0,0,1-.37,13c-1.22,14.34-2.88,31.13-12.42,46.77a80.13,80.13,0,0,1-6.78,9.48C409.76,364,401.82,373,400.14,374.9a.76.76,0,0,1-.49.29C398.21,375.29,396.57,369.33,395.12,362.49Z"/><path class="cls-1" d="M370.63,264.38c-4.34-6.81-12.59-29.79-13-35.49s-.6-27.66.68-35.74,9.53-28.94,11.58-34.22,9-24.25,11.74-32.85-10.64-8-23.4-7.32-22,6-32.26,10.9S305.69,144,296.42,152.29s-16.43,12.43-29,18.56-35,1.78-47.92-1.53-32.85,1.78-47.74,3.49-26.62-4.41-32.56-7.86S123.61,152.44,113,142s-16.53-13.09-20-14.75c-11-6-19.28-7.15-33.19-9.45s-18,2.92-18,2.92l-1.2.77c-.14,1.17-.23,2-.27,2.42a6.8,6.8,0,0,0,0,1c0,.13,0,.33.17,1.69l0,.21c1,7.32,7.87,30.55,14.42,43.64,7.49,15,8.51,50.21,8.51,61.11S52.76,264,51,266.17s-21.87,33-24.51,37.27a10.43,10.43,0,0,0,.6,12.26C31,322.34,55.74,328,59.4,328.89s31.06,7.66,39.06,9.19,40.85,18.38,55.83,36.43,32.77,30.25,35.83,32.61,13.53,6.2,13.53,6.2,10.66.89,13.66.57,3.83-2.43,9.19-4.53a28.89,28.89,0,0,0,7.79-4.21c11.11-6.52,22.72-19.75,32.17-28.6S292.33,355.1,300.59,350s36.85-12.51,43-13.79,31-8.68,40.51-12.6,10.13-9.95,10.55-12.42,0-7-1.87-12.51S375,271.19,370.63,264.38Z"/><path class="cls-2" d="M13.61,391.1S33,356,50,350.59s33-9.53,43.57-6.47,46.3,25.54,52.08,30.64,26.9,24.85,33.37,31,22.46,12.94,36.08,11.92,43.24-24.78,56.17-37.24,50-39.76,70.81-37.35,46.3,19.1,48,22.84,17.36,35.07,17.36,44.94,1.7,49,1.7,53.44,4.43,54.13-1.36,60.94-9.19,27.92-19.4,31.66-54.47-6.13-63-17-31.32-34-41.53-40.85a41,41,0,0,1-14.3-17.36l-120.51-1s-48.34,55.83-60.94,62-41.87,18-50.72,17.36-28.6-32.34-28.6-48,.68-61.95,0-70.8S13.61,391.1,13.61,391.1Z"/><path class="cls-4" d="M12.62,423.27c.91,4.82,2.2,12.08,3.54,20.94,2.72,17.92,3.57,28.93,6.62,52.71,3.1,24.26,5.22,36.3,13.89,42.52a30,30,0,0,0,9.43,4.29A63.11,63.11,0,0,0,65.67,541c.41-.13.89-.28,1.46-.48,12-4.23,26.33-17.54,31.56-22.5,14-13.28,21-19.93,23.65-23.68,4.73-6.66,11.06-12.4,14.31-19.9,1-2.22,2.83-7,7.32-8.85a11.35,11.35,0,0,1,6.3-.51s3.42.6,123.78,2.12a9.33,9.33,0,0,1,6.95,3c15.53,26.91,44.76,54.83,56.52,63.33,13.79,10,24.94,13.6,28.26,13.57s17.62-3.36,23-24.8,5.15-35.49,5.77-49.53c2.14-13.28,7.16-42.46,9.72-48.3s.59-4.56.59-4.56L409.69,508,393.1,556.29,365.78,565,311.46,529.6l-44-44.28-75.57-.26-40.85,2.55L116.59,520l-48.77,38-28.59,2.55L16,543.78,7.31,496.29Z"/><path class="cls-3" d="M89,344.29s-12.76,2.9-19.74,4.94S30,360.29,19.4,394.34c-1.19,4.25-4.09,16.51-4.26,19.06s-1.7,28.43-1.87,36.09,0,44.42.68,53.1,4.77,25.19,7,29.28S33,565,67.91,550.25a140.27,140.27,0,0,0,23.46-14,140.67,140.67,0,0,0,21-19c11.42-12.71,18.07-18.32,35.77-41.42a3,3,0,0,1,2.44-1.19c14.35.21,109.45.91,120.07,1a1.85,1.85,0,0,1,1.52.78c10.94,14.68,23.74,27.88,35.22,42.14a131.13,131.13,0,0,0,26.92,25,64.18,64.18,0,0,0,22.3,12.59c5.79,1.87,11.17,3.6,17.38,2.36,13.79-2.76,20.44-17.93,21.53-20.51,0,0,8.43-21,8.6-42.13s-.34-76.17-.85-83.66S395.74,368.29,369,356c-20.42-7.66-30.8-13.12-30.8-13.12l27.06-1.86s7.66,3.57,9.87,5.11,22.3,12.25,30,31.32,8.51,29.61,8.68,32.85,2,36.08,2,36.08v48.17c-1,12.09-2.45,22.24-3.74,30-2.32,13.79-4,18.87-6.58,23.81-1.75,3.33-5.19,9.89-11.12,14.57-16.64,13.12-42.94,3.6-46.58,2.28C336.29,561,327.53,552.9,310,536.61c-9-8.33-16.36-16.26-28.32-29.08-10.84-11.63-15-18.41-17.7-19.41-5.44-2-109.27-.34-109.27-.34s-32,36.77-53.79,52.77-25,20.34-43.75,24.43c-1.84.4-22.29,2.58-36.93-11.32-6.66-6.33-9.09-13.13-12.54-23.18C5.49,524,3,515,1.35,491.53.3,476.86-.9,459.13,1,435c1.17-14.8,1.8-22.78,4.78-34,2.15-8.14,8.57-31.43,24.51-44.6a95.06,95.06,0,0,1,8.57-6.15c3.59-2.24,11.34-7.1,20-9.17C71.39,338.09,82.73,341.65,89,344.29Z"/><path class="cls-1" d="M84,463.89a5.77,5.77,0,0,1-4.31-1.71,6.2,6.2,0,0,1-1.62-4.72c.13-3.52.08-7.1,0-10.47-.07-4.07-2.26-6.23-6.32-6.24H66.34l-4.81,0h-.21a6.58,6.58,0,0,1-4.87-1.8,6.36,6.36,0,0,1-1.71-4.71l0-1.11c.09-6.17.18-12.55.14-18.81a6.29,6.29,0,0,1,1.65-4.59A5.94,5.94,0,0,1,61,408.1h.61l2.85,0,3,0c1.76,0,3.21,0,4.55.13.22,0,.43,0,.64,0,3.47,0,5.44-1.92,5.54-5.41.08-3.12.16-6.44,0-9.67a7.06,7.06,0,0,1,1.63-5.31,6.48,6.48,0,0,1,4.94-1.87c.22,0,.46,0,.7,0,1.07.05,2.24.08,3.68.08l2.79,0,2.88,0h.12l2.87,0,2.92,0c1.43,0,2.61,0,3.69-.07l.59,0a6.38,6.38,0,0,1,4.83,1.82,6.87,6.87,0,0,1,1.66,5.14c-.16,3.93-.08,7.8,0,11.07a4.82,4.82,0,0,0,4.94,4.33l.45,0c2-.18,4-.21,5.64-.21l3.82,0h1.62a6.11,6.11,0,0,1,4.51,1.73,6.44,6.44,0,0,1,1.76,4.78c0,7-.06,13.25,0,19.62a6.63,6.63,0,0,1-1.7,4.84,6.19,6.19,0,0,1-4.59,1.72h-.35c-1.83-.06-3.6-.09-5.26-.09s-3,0-4.48.08c-1.71.06-4.05.46-5.42,2.06s-1.46,4-1.27,5.76a33.46,33.46,0,0,1-.06,6.66c-.08,1.09-.16,2.11-.17,3.11,0,1.22-.47,5.2-5.67,5.24h-1.12c-1.8,0-3.6,0-5.41-.06s-3.52-.06-5.27-.06a82,82,0,0,0-8.46.37C84.6,463.87,84.3,463.89,84,463.89Z"/><path class="cls-5" d="M84.65,389.94h.49c1.29.07,2.59.09,3.89.09,1.89,0,3.78,0,5.67,0h.11c1.93,0,3.87,0,5.8,0,1.29,0,2.59,0,3.88-.08h.4c1.84,0,2.58.7,2.49,2.8-.15,3.78-.1,7.57,0,11.35.13,4.66,4.3,8.21,8.94,8.21a7.26,7.26,0,0,0,.8,0c1.75-.15,3.52-.19,5.29-.19l3.84,0h1.6c1.66,0,2.28.87,2.27,2.49,0,6.56-.06,13.12,0,19.69,0,1.79-.58,2.51-2.29,2.51h-.22c-1.8-.06-3.59-.09-5.39-.09-1.54,0-3.08,0-4.62.08-7.51.26-11.34,5.06-10.52,12.27.36,3.17-.22,6.18-.26,9.27,0,1.25-.63,1.28-1.7,1.29H104c-3.55,0-7.11-.12-10.67-.12a87.6,87.6,0,0,0-8.87.39l-.48,0c-1.25,0-2-.62-1.93-2.29.12-3.56.08-7.12,0-10.68-.11-6.24-4.1-10.15-10.3-10.17l-5.44,0c-1.63,0-3.27,0-4.91,0h-.14c-1.66,0-2.6-.56-2.58-2.45.1-6.67.2-13.34.16-20,0-1.64.56-2.22,2.05-2.22h.61c1.94,0,3.87-.05,5.81-.05,1.43,0,2.86,0,4.28.12l.91,0c5.52,0,9.37-3.55,9.53-9.29.1-3.34.17-6.68,0-10-.13-2.23.64-3,2.57-3m0-8h0a10.36,10.36,0,0,0-7.84,3.12,10.67,10.67,0,0,0-2.72,8.28c.17,3.08.09,6.3,0,9.34,0,1.32-.24,1.52-1.54,1.52h-.37c-1.43-.1-3-.14-4.82-.14-1,0-2,0-3,0l-2.8,0H61a9.87,9.87,0,0,0-7.24,2.83,10.07,10.07,0,0,0-2.81,7.44c0,6.21,0,12.57-.14,18.72l0,1.11a10.25,10.25,0,0,0,2.86,7.57,10.45,10.45,0,0,0,7.72,3h.28c1.42,0,2.93,0,4.77,0h5.4c1.87,0,2.31.44,2.34,2.31.06,3.31.1,6.83,0,10.25A10.15,10.15,0,0,0,76.83,465,9.84,9.84,0,0,0,84,467.89a11.75,11.75,0,0,0,1.31-.07,76.66,76.66,0,0,1,8-.35c1.71,0,3.41,0,5.2.06s3.63.06,5.47.06h1.16c6.58,0,9.58-4.65,9.64-9.19,0-.87.08-1.83.16-2.85a37.88,37.88,0,0,0,0-7.42,4,4,0,0,1,.32-2.7,4,4,0,0,1,2.53-.68c1.39-.05,2.86-.07,4.34-.07,1.63,0,3.35,0,5.12.09h.49a10.14,10.14,0,0,0,7.44-2.91,10.31,10.31,0,0,0,2.85-7.69c-.07-6.3,0-12.59,0-19.56a10.37,10.37,0,0,0-2.92-7.62,10.05,10.05,0,0,0-7.35-2.91h-5.44c-1.74,0-3.82,0-6,.22h-.09a1.17,1.17,0,0,1-1-.47c-.08-3.17-.15-7,0-10.77a10.56,10.56,0,0,0-2.77-8.07,10.32,10.32,0,0,0-7.72-3.05l-.78,0c-1,0-2.13.07-3.5.07l-2.88,0-2.91,0H94.7l-2.93,0L89,382c-1.36,0-2.46,0-3.46-.08-.32,0-.63,0-.92,0Z"/><path class="cls-5" d="M325.17,408.65a15.48,15.48,0,1,1,15.62-15.38A15.61,15.61,0,0,1,325.17,408.65Z"/><path class="cls-5" d="M356.28,407.51a15.49,15.49,0,0,1,0,31,15.49,15.49,0,1,1,0-31Z"/><path class="cls-5" d="M296.56,407.52a15.49,15.49,0,1,1-15.51,15.41A15.54,15.54,0,0,1,296.56,407.52Z"/><path class="cls-5" d="M325,466.71a15.48,15.48,0,0,1,.41-31,15.48,15.48,0,1,1-.41,31Z"/><path class="cls-2" d="M212.76,416s44.08-142.47,185.7-99.92c0,7.15-30.81,18.21-30.81,18.21S308.08,351,298.89,356.74,239,408.49,239,408.49Z"/><path class="cls-2" d="M207.33,416s-44.08-142.47-185.7-99.92c0,7.15,30.81,18.21,30.81,18.21S112,351,121.21,356.74s59.91,51.75,59.91,51.75Z"/><path class="cls-3" d="M101.61,272s23.15-22.12,60.77-5.27c11.06,7,29.61,24.17,25,47.49l-1.88,2.55-8.17.68s-21.27-20.08-74.21-39.15C100.59,274.85,101.61,272,101.61,272Z"/><path class="cls-3" d="M318.87,272s-23.14-22.12-60.76-5.27c-11.06,7-29.62,24.17-25,47.49l1.87,2.55,8.17.68s21.28-20.08,74.21-39.15C319.9,274.85,318.87,272,318.87,272Z"/><path class="cls-3" d="M230.12,351.77c0,9-11.73,19.42-21.36,19.42-9.28-1.62-20.65-10.26-20.65-19.24,2.44-6.59,11-12.42,21-12.42C218.75,339.53,227.82,344.55,230.12,351.77Z"/><path class="cls-3" d="M352.5,139.1s-17.36,14.81-20.93,18.26-15.07,14.55-15.19,16.47,0,5.23,0,5.23,19.91,14.55,20.93,15.45.77,3.83-2.3,2.55-25.53-12.25-30.51-13.15c-2.93-2.3-4.46-5.1.77-10.85s23.11-23.23,33.32-28.85S352,137.32,352.5,139.1Z"/><path class="cls-3" d="M66.67,138.59S84,153.4,87.6,156.85s15.07,14.55,15.19,16.47,0,5.23,0,5.23S82.88,193.1,81.86,194s-.77,3.83,2.3,2.55,25.53-12.26,30.51-13.15c2.93-2.3,4.46-5.11-.77-10.85S90.79,149.32,80.58,143.7,67.18,136.81,66.67,138.59Z"/><path class="cls-3" d="M29.16,122.79h0c-.12,3.3-.23,9.21.49,11.72,1,3.57,11.62,31.66,12.9,38.17s8.55,29.49,8.55,38.42,1.28,20.3-2.17,29.11S40.5,262,38.46,264.34s-18.25,22.72-21.7,31.27-9.45,24.64,5.62,31.66,16.12,7.58,19.7,8.51,15.36,4.51,18.59,5.15,37.79,7.53,44.81,11.75,22.73,13.78,37,27.83,39.07,40.34,53.88,42.64,30.38,4.08,53.74-15.58,32.17-30.89,38.17-35.11,24.89-17.36,40.47-20.68c19.14-4.08,33.75-5.86,54.26-13.13a39.48,39.48,0,0,0,15.59-9.73c2.37-2.46,6.13-6.45,7.66-12.77,2.15-8.9-1.6-16.38-2.9-18.72-11.1-21.09-18.59-34.48-23.55-43.05-.54-.94-1-1.79-1.69-3-3.33-6.25-9.55-19.82-9-35.28.64-18.89,2.42-33.57,7.53-44.81s15.19-34.46,15.58-42,2.17-16.21-12.13-21.57c-14.93-5.6-30.73-.2-46.47,5.23a101,101,0,0,0-15.85,6.8c-4.28,2.35-8.86,5.33-18.39,13.28-14.44,12-14.24,13.79-20.4,18.09-5.84,4.08-15.24,8.94-29.87,10.6-6.26.13-26.71-3.91-31.15-5.45a59.93,59.93,0,0,0-26.81.09,51.67,51.67,0,0,1-14.87,3.89,54.58,54.58,0,0,1-32-6.88,193.44,193.44,0,0,0-30.13-26.82c-10-7.19-18.29-13.72-30.36-16.7-15.49-3.83-23.83-4.26-30.56-4.17S37.61,108.55,34,112a15.09,15.09,0,0,0-3.11,4.22,12.81,12.81,0,0,0-.61,1.33,13.15,13.15,0,0,0-.78,2.9M394.38,310.93c-.43,2.47-1,8.51-10.56,12.43S349.44,334.68,343.31,336s-34.72,8.68-43,13.79-24.68,17.7-34.12,26.55-21.07,22.09-32.17,28.6c-.44.33-1.09.79-1.89,1.32a43.16,43.16,0,0,1-5.65,3.15c-5.6,2.65-8.4,4-9.44,4.27-2.44.7-7.08,1.5-13.66-.57,0,0-10.47-3.83-13.53-6.19S169,392.29,154,374.25s-47.83-34.89-55.83-36.42-35.41-8.26-39.07-9.2-28.42-6.55-32.34-13.19a10.41,10.41,0,0,1-.59-12.25c2.63-4.26,22.72-35.15,24.51-37.28s12.42-23.74,12.42-34.64c0-26.63-4.55-50.11-8.51-61.1-2.5-6.95-4.36-14.15-7.43-20.87l-6.75-22.73a9.44,9.44,0,0,1-.17-1.81,9.08,9.08,0,0,1,.07-1.09,5,5,0,0,1,.43-2,4.91,4.91,0,0,1,.34-.61l.76-.5a27.83,27.83,0,0,1,5.32-2.22c3.77-1.13,7.23-1.27,12.32-.85,1.39.11,14.81,1.74,25,5.64A66.2,66.2,0,0,1,92.72,127c3.51,1.65,9.44,4.27,20,14.74s20.23,19.53,26.17,23,17.66,9.55,32.55,7.85,34.81-6.81,47.75-3.49,35.32,7.66,47.91,1.53,19.75-10.3,29-18.55,19.24-17.79,29.53-22.64,19.49-10.21,32.26-10.89,26.13-1.28,23.4,7.32-9.7,27.57-11.74,32.85-10.3,26.13-11.57,34.21c-2.8,17.69-1.48,30.92-.69,35.74a100.53,100.53,0,0,0,3.9,15.65,106.78,106.78,0,0,0,9.13,19.84c8.48,14.58,18.23,22.8,22.12,34.3C394.38,304,394.8,308.46,394.38,310.93Z"/></g></g></svg>