<svg width="195" height="120" viewBox="0 0 195 120" fill="none" xmlns="http://www.w3.org/2000/svg">
<g clip-path="url(#clip0_107_149)">
<g filter="url(#filter0_d_107_149)">
<path d="M72.28 22.68V76.53L45.35 84.98V14.22L72.28 22.68Z" fill="#E31837"/>
</g>
<g filter="url(#filter1_d_107_149)">
<path d="M90.71 99.21L45.35 113.39L0 99.21V0L45.35 14.22L18.43 22.68V76.53L45.35 84.98L90.71 99.21Z" fill="#E31837"/>
</g>
<g filter="url(#filter2_d_107_149)">
<path d="M99.21 40V22.68H104.11L108 36.24L111.87 22.68H116.79V40H113.95V25.79H113.57L109.47 39.33H106.53L102.42 25.79H102V40H99.21Z" fill="#717073"/>
</g>
<g filter="url(#filter3_d_107_149)">
<path d="M121.21 40V22.68H132.21V25.13H124V30.05H130.62V32.49H124V37.55H132.14V40H121.21Z" fill="#717073"/>
</g>
<g filter="url(#filter4_d_107_149)">
<path d="M134.84 25.18V22.68H147.52V25.18H142.62V40H139.79V25.18H134.84Z" fill="#717073"/>
</g>
<g filter="url(#filter5_d_107_149)">
<path d="M153.4 34.49C153.4 36.7433 154.583 37.8667 156.95 37.86C159.31 37.86 160.5 36.74 160.5 34.49V22.68H163.33V34.44C163.404 35.2565 163.299 36.0793 163.022 36.8512C162.746 37.6231 162.305 38.3256 161.73 38.91C160.353 39.9443 158.648 40.4452 156.93 40.32C155.221 40.4498 153.524 39.9481 152.16 38.91C151.585 38.3256 151.144 37.6231 150.868 36.8512C150.591 36.0793 150.486 35.2565 150.56 34.44V22.68H153.4V34.49Z" fill="#717073"/>
</g>
<g filter="url(#filter6_d_107_149)">
<path d="M109.27 68.29V64.42H115.64V75.79C113.173 76.2323 110.676 76.483 108.17 76.54C104.76 76.54 102.41 75.62 101.17 73.8C99.93 71.98 99.25 69.07 99.25 65.1C99.25 61.13 99.92 58.26 101.25 56.5C102.58 54.74 104.85 53.86 108.05 53.86C110.223 53.876 112.39 54.1004 114.52 54.53L115.68 54.76L115.55 58.21C113.449 57.9597 111.336 57.8195 109.22 57.79C108.037 57.7016 106.85 57.9006 105.76 58.37C105.016 58.8688 104.493 59.6353 104.3 60.51C103.911 62.2652 103.753 64.0638 103.83 65.86C103.83 68.38 104.14 70.1467 104.76 71.16C105.39 72.16 106.67 72.67 108.63 72.67L111.3 72.54V68.29H109.27Z" fill="black"/>
</g>
<g filter="url(#filter7_d_107_149)">
<path d="M118.94 76.15L123.87 54.24H132.31L137.23 76.15H132.79L131.92 72.15H124.25L123.38 76.15H118.94ZM127.31 57.92L125.09 68.32H131.09L128.87 57.92H127.31Z" fill="black"/>
</g>
<g filter="url(#filter8_d_107_149)">
<path d="M137.76 58.17V54.24H153.87V58.17H148.07V76.17H143.62V58.17H137.76Z" fill="black"/>
</g>
<g filter="url(#filter9_d_107_149)">
<path d="M157.37 76.15V54.24H171.54V58.11H161.81V63.23H169.61V67H161.81V72.25H171.54V76.12L157.37 76.15Z" fill="black"/>
</g>
<g filter="url(#filter10_d_107_149)">
<path d="M182.71 57.72C180.37 57.72 179.2 58.5 179.2 60.04C179.188 60.3575 179.262 60.6724 179.416 60.9507C179.569 61.2291 179.795 61.4604 180.07 61.62C181.372 62.2773 182.735 62.8065 184.14 63.2C185.8 63.6246 187.339 64.4253 188.64 65.54C189.577 66.6526 190.037 68.0901 189.92 69.54C189.988 70.5099 189.836 71.4827 189.474 72.3851C189.112 73.2876 188.55 74.0961 187.83 74.75C186.282 75.986 184.339 76.6185 182.36 76.53C180.285 76.4818 178.221 76.2205 176.2 75.75L175 75.54L175.45 72.09C177.639 72.4212 179.847 72.6149 182.06 72.67C184.333 72.67 185.47 71.7233 185.47 69.83C185.482 69.5172 185.416 69.2063 185.278 68.9253C185.14 68.6443 184.935 68.402 184.68 68.22C183.713 67.6619 182.668 67.2507 181.58 67C179.654 66.5768 177.853 65.7106 176.32 64.47C175.795 63.9339 175.388 63.2941 175.124 62.5915C174.861 61.8889 174.747 61.1391 174.79 60.39C174.72 59.4756 174.865 58.5575 175.212 57.7086C175.559 56.8598 176.1 56.1036 176.79 55.5C178.375 54.3443 180.312 53.7752 182.27 53.89C184.301 53.9328 186.325 54.1469 188.32 54.53L189.48 54.76L189.13 58.27C186.09 57.9 184 57.72 182.71 57.72Z" fill="black"/>
</g>
</g>
<defs>
<filter id="filter0_d_107_149" x="41.35" y="14.22" width="34.93" height="78.76" filterUnits="userSpaceOnUse" color-interpolation-filters="sRGB">
<feFlood flood-opacity="0" result="BackgroundImageFix"/>
<feColorMatrix in="SourceAlpha" type="matrix" values="0 0 0 0 0 0 0 0 0 0 0 0 0 0 0 0 0 0 127 0" result="hardAlpha"/>
<feOffset dy="4"/>
<feGaussianBlur stdDeviation="2"/>
<feComposite in2="hardAlpha" operator="out"/>
<feColorMatrix type="matrix" values="0 0 0 0 0.5875 0 0 0 0 0.0024479 0 0 0 0 0.0024479 0 0 0 0.25 0"/>
<feBlend mode="normal" in2="BackgroundImageFix" result="effect1_dropShadow_107_149"/>
<feBlend mode="normal" in="SourceGraphic" in2="effect1_dropShadow_107_149" result="shape"/>
</filter>
<filter id="filter1_d_107_149" x="-2" y="0" width="98.71" height="121.39" filterUnits="userSpaceOnUse" color-interpolation-filters="sRGB">
<feFlood flood-opacity="0" result="BackgroundImageFix"/>
<feColorMatrix in="SourceAlpha" type="matrix" values="0 0 0 0 0 0 0 0 0 0 0 0 0 0 0 0 0 0 127 0" result="hardAlpha"/>
<feOffset dx="2" dy="4"/>
<feGaussianBlur stdDeviation="2"/>
<feComposite in2="hardAlpha" operator="out"/>
<feColorMatrix type="matrix" values="0 0 0 0 0.5875 0 0 0 0 0.0024479 0 0 0 0 0.0024479 0 0 0 0.25 0"/>
<feBlend mode="normal" in2="BackgroundImageFix" result="effect1_dropShadow_107_149"/>
<feBlend mode="normal" in="SourceGraphic" in2="effect1_dropShadow_107_149" result="shape"/>
</filter>
<filter id="filter2_d_107_149" x="97.21" y="22.68" width="25.58" height="25.32" filterUnits="userSpaceOnUse" color-interpolation-filters="sRGB">
<feFlood flood-opacity="0" result="BackgroundImageFix"/>
<feColorMatrix in="SourceAlpha" type="matrix" values="0 0 0 0 0 0 0 0 0 0 0 0 0 0 0 0 0 0 127 0" result="hardAlpha"/>
<feOffset dx="2" dy="4"/>
<feGaussianBlur stdDeviation="2"/>
<feComposite in2="hardAlpha" operator="out"/>
<feColorMatrix type="matrix" values="0 0 0 0 0 0 0 0 0 0 0 0 0 0 0 0 0 0 0.25 0"/>
<feBlend mode="normal" in2="BackgroundImageFix" result="effect1_dropShadow_107_149"/>
<feBlend mode="normal" in="SourceGraphic" in2="effect1_dropShadow_107_149" result="shape"/>
</filter>
<filter id="filter3_d_107_149" x="119.21" y="22.68" width="19" height="25.32" filterUnits="userSpaceOnUse" color-interpolation-filters="sRGB">
<feFlood flood-opacity="0" result="BackgroundImageFix"/>
<feColorMatrix in="SourceAlpha" type="matrix" values="0 0 0 0 0 0 0 0 0 0 0 0 0 0 0 0 0 0 127 0" result="hardAlpha"/>
<feOffset dx="2" dy="4"/>
<feGaussianBlur stdDeviation="2"/>
<feComposite in2="hardAlpha" operator="out"/>
<feColorMatrix type="matrix" values="0 0 0 0 0 0 0 0 0 0 0 0 0 0 0 0 0 0 0.25 0"/>
<feBlend mode="normal" in2="BackgroundImageFix" result="effect1_dropShadow_107_149"/>
<feBlend mode="normal" in="SourceGraphic" in2="effect1_dropShadow_107_149" result="shape"/>
</filter>
<filter id="filter4_d_107_149" x="132.84" y="22.68" width="20.68" height="25.32" filterUnits="userSpaceOnUse" color-interpolation-filters="sRGB">
<feFlood flood-opacity="0" result="BackgroundImageFix"/>
<feColorMatrix in="SourceAlpha" type="matrix" values="0 0 0 0 0 0 0 0 0 0 0 0 0 0 0 0 0 0 127 0" result="hardAlpha"/>
<feOffset dx="2" dy="4"/>
<feGaussianBlur stdDeviation="2"/>
<feComposite in2="hardAlpha" operator="out"/>
<feColorMatrix type="matrix" values="0 0 0 0 0 0 0 0 0 0 0 0 0 0 0 0 0 0 0.25 0"/>
<feBlend mode="normal" in2="BackgroundImageFix" result="effect1_dropShadow_107_149"/>
<feBlend mode="normal" in="SourceGraphic" in2="effect1_dropShadow_107_149" result="shape"/>
</filter>
<filter id="filter5_d_107_149" x="148.537" y="22.68" width="20.8156" height="25.6601" filterUnits="userSpaceOnUse" color-interpolation-filters="sRGB">
<feFlood flood-opacity="0" result="BackgroundImageFix"/>
<feColorMatrix in="SourceAlpha" type="matrix" values="0 0 0 0 0 0 0 0 0 0 0 0 0 0 0 0 0 0 127 0" result="hardAlpha"/>
<feOffset dx="2" dy="4"/>
<feGaussianBlur stdDeviation="2"/>
<feComposite in2="hardAlpha" operator="out"/>
<feColorMatrix type="matrix" values="0 0 0 0 0 0 0 0 0 0 0 0 0 0 0 0 0 0 0.25 0"/>
<feBlend mode="normal" in2="BackgroundImageFix" result="effect1_dropShadow_107_149"/>
<feBlend mode="normal" in="SourceGraphic" in2="effect1_dropShadow_107_149" result="shape"/>
</filter>
<filter id="filter6_d_107_149" x="97.25" y="53.86" width="24.43" height="30.6801" filterUnits="userSpaceOnUse" color-interpolation-filters="sRGB">
<feFlood flood-opacity="0" result="BackgroundImageFix"/>
<feColorMatrix in="SourceAlpha" type="matrix" values="0 0 0 0 0 0 0 0 0 0 0 0 0 0 0 0 0 0 127 0" result="hardAlpha"/>
<feOffset dx="2" dy="4"/>
<feGaussianBlur stdDeviation="2"/>
<feComposite in2="hardAlpha" operator="out"/>
<feColorMatrix type="matrix" values="0 0 0 0 0 0 0 0 0 0 0 0 0 0 0 0 0 0 0.25 0"/>
<feBlend mode="normal" in2="BackgroundImageFix" result="effect1_dropShadow_107_149"/>
<feBlend mode="normal" in="SourceGraphic" in2="effect1_dropShadow_107_149" result="shape"/>
</filter>
<filter id="filter7_d_107_149" x="116.94" y="54.24" width="26.29" height="29.91" filterUnits="userSpaceOnUse" color-interpolation-filters="sRGB">
<feFlood flood-opacity="0" result="BackgroundImageFix"/>
<feColorMatrix in="SourceAlpha" type="matrix" values="0 0 0 0 0 0 0 0 0 0 0 0 0 0 0 0 0 0 127 0" result="hardAlpha"/>
<feOffset dx="2" dy="4"/>
<feGaussianBlur stdDeviation="2"/>
<feComposite in2="hardAlpha" operator="out"/>
<feColorMatrix type="matrix" values="0 0 0 0 0 0 0 0 0 0 0 0 0 0 0 0 0 0 0.25 0"/>
<feBlend mode="normal" in2="BackgroundImageFix" result="effect1_dropShadow_107_149"/>
<feBlend mode="normal" in="SourceGraphic" in2="effect1_dropShadow_107_149" result="shape"/>
</filter>
<filter id="filter8_d_107_149" x="135.76" y="54.24" width="24.11" height="29.9301" filterUnits="userSpaceOnUse" color-interpolation-filters="sRGB">
<feFlood flood-opacity="0" result="BackgroundImageFix"/>
<feColorMatrix in="SourceAlpha" type="matrix" values="0 0 0 0 0 0 0 0 0 0 0 0 0 0 0 0 0 0 127 0" result="hardAlpha"/>
<feOffset dx="2" dy="4"/>
<feGaussianBlur stdDeviation="2"/>
<feComposite in2="hardAlpha" operator="out"/>
<feColorMatrix type="matrix" values="0 0 0 0 0 0 0 0 0 0 0 0 0 0 0 0 0 0 0.25 0"/>
<feBlend mode="normal" in2="BackgroundImageFix" result="effect1_dropShadow_107_149"/>
<feBlend mode="normal" in="SourceGraphic" in2="effect1_dropShadow_107_149" result="shape"/>
</filter>
<filter id="filter9_d_107_149" x="155.37" y="54.24" width="22.17" height="29.91" filterUnits="userSpaceOnUse" color-interpolation-filters="sRGB">
<feFlood flood-opacity="0" result="BackgroundImageFix"/>
<feColorMatrix in="SourceAlpha" type="matrix" values="0 0 0 0 0 0 0 0 0 0 0 0 0 0 0 0 0 0 127 0" result="hardAlpha"/>
<feOffset dx="2" dy="4"/>
<feGaussianBlur stdDeviation="2"/>
<feComposite in2="hardAlpha" operator="out"/>
<feColorMatrix type="matrix" values="0 0 0 0 0 0 0 0 0 0 0 0 0 0 0 0 0 0 0.25 0"/>
<feBlend mode="normal" in2="BackgroundImageFix" result="effect1_dropShadow_107_149"/>
<feBlend mode="normal" in="SourceGraphic" in2="effect1_dropShadow_107_149" result="shape"/>
</filter>
<filter id="filter10_d_107_149" x="172.773" y="53.8755" width="23.1649" height="30.6627" filterUnits="userSpaceOnUse" color-interpolation-filters="sRGB">
<feFlood flood-opacity="0" result="BackgroundImageFix"/>
<feColorMatrix in="SourceAlpha" type="matrix" values="0 0 0 0 0 0 0 0 0 0 0 0 0 0 0 0 0 0 127 0" result="hardAlpha"/>
<feOffset dx="2" dy="4"/>
<feGaussianBlur stdDeviation="2"/>
<feComposite in2="hardAlpha" operator="out"/>
<feColorMatrix type="matrix" values="0 0 0 0 0 0 0 0 0 0 0 0 0 0 0 0 0 0 0.25 0"/>
<feBlend mode="normal" in2="BackgroundImageFix" result="effect1_dropShadow_107_149"/>
<feBlend mode="normal" in="SourceGraphic" in2="effect1_dropShadow_107_149" result="shape"/>
</filter>
<clipPath id="clip0_107_149">
<rect width="195" height="120" fill="white"/>
</clipPath>
</defs>
</svg>
