<svg id="Layer_1" data-name="Layer 1" xmlns="http://www.w3.org/2000/svg" viewBox="0 0 317.3 158.8"><defs><style>.cls-1{fill:#b12028;}</style></defs><path class="cls-1" d="M381.4,154.9c0-15.2-10.8-23.6-28.9-23.6S321,134.4,307,157l-20,30.1c-11,17.1-24.6,17-31.7,17-13.5,0-16.3-6.7-16.3-12.4a47.3,47.3,0,0,1,1.2-7.7v-.8h.8c19.1-.6,54.5-1.7,54.5-30.3,0-13.3-10.4-22.3-26-22.3-22.8,0-36.5,11.5-40.6,34.1l-4.1,21.5a39.5,39.5,0,0,0-.6,6.6c0,15.3,10.8,24.3,29,24.3s31.6-3.8,45.1-24.3l20.8-31.7c11.6-19.4,25.6-17.5,31.2-17.5,13.5,0,16.3,6.8,16.3,12.5a58.7,58.7,0,0,1-1.1,7.7l-.2.8h-.8c-19,.6-54.5,1.6-54.5,30.3,0,13.3,10.5,22.2,26,22.2,22.8,0,36.5-11.4,40.7-34l4.1-21.6A38.1,38.1,0,0,0,381.4,154.9Zm-137.2,7.6c1.9-8.6,7.5-18.9,23.9-18.9,12.2,0,12.8,9.1,12.8,10.9-.1,9.9-12.6,15.2-37.1,15.8h-1.3Zm117.4,22.7c-1.9,8.6-7.6,18.9-24,18.9-12.2,0-12.8-9.1-12.8-10.9.2-9.9,12.6-15.2,37.1-15.8h1.3ZM195.3,130.7a57.1,57.1,0,0,0-19.3,3.7c-13.4,5.4-18.4,18-20.2,25L139,249.8a3.2,3.2,0,0,0,.6,2.6,3,3,0,0,0,2.4.9h8a3.4,3.4,0,0,0,3.5-2.8l7.6-40.9,1.3,1.2c4.4,4,11.5,6.3,19.3,6.3,18.8,0,31.7-11.7,35.5-32.2l4.4-22.1c1.7-9.3.1-17.3-4.8-23.1S204.3,130.7,195.3,130.7ZM207,162.3l-4.6,22.2c-1.9,9.3-8.3,19.4-21,19.4-5.8,0-10.3-1.9-13.2-5.4s-3.8-8.1-2.8-13.2l4.5-22.5A23.3,23.3,0,0,1,192.3,144c5.7,0,9.8,1.5,12.4,4.5S207.8,158.2,207,162.3Zm249-29c-.2-.6-.9-1.4-2.7-1.4h-9.8a5.5,5.5,0,0,0-4.5,1.7l-38.8,33.5L413.8,98a2.8,2.8,0,0,0-.6-2.5,3.3,3.3,0,0,0-2.6-1h-8.1a3.5,3.5,0,0,0-3.6,3.1l-19,115.2a2.8,2.8,0,0,0,.5,2.4,2.9,2.9,0,0,0,2.2,1H388a3.4,3.4,0,0,0,3.5-3.1l3.7-19.1c2.1-10.5,11.7-18.7,21.9-18.7a14.6,14.6,0,0,1,11.5,5.2,15,15,0,0,1,2.8,13l-3.7,18.9a3.2,3.2,0,0,0,.6,2.8,3.2,3.2,0,0,0,2.6,1h8c2.4,0,3.2-1.8,3.7-3.6l3.5-18.6c1.6-8.2,0-15.9-4.5-21.7a24.1,24.1,0,0,0-14.7-8.7l-2.1-.4,29.5-25.4a10.1,10.1,0,0,0,1.5-1.8A2.4,2.4,0,0,0,456,133.3Z" transform="translate(-139 -94.5)"/></svg>