<svg width="74" height="74" viewBox="0 0 74 74" fill="none" xmlns="http://www.w3.org/2000/svg">
<path d="M59.0768 21.9841C57.4351 22.71 55.6716 23.2006 53.8176 23.4223C55.7306 22.2799 57.1618 20.482 57.8441 18.3639C56.0468 19.4293 54.0798 20.1793 52.0285 20.5811C50.6491 19.1112 48.822 18.137 46.831 17.8096C44.8399 17.4822 42.7962 17.82 41.0172 18.7706C39.2382 19.7212 37.8234 21.2313 36.9925 23.0666C36.1617 24.9018 35.9611 26.9595 36.4221 28.9202C32.7804 28.7377 29.2178 27.7931 25.9656 26.1475C22.7133 24.502 19.8441 22.1924 17.5442 19.3685C16.7577 20.7224 16.3056 22.2921 16.3056 23.9639C16.3047 25.4688 16.676 26.9507 17.3866 28.2781C18.0973 29.6054 19.1252 30.7372 20.3792 31.573C18.9249 31.5268 17.5026 31.1346 16.2308 30.4291V30.5468C16.2307 32.6576 16.9623 34.7034 18.3014 36.3371C19.6406 37.9708 21.5049 39.0918 23.5779 39.5098C22.2288 39.8742 20.8144 39.9279 19.4414 39.6668C20.0263 41.483 21.1656 43.0712 22.6998 44.209C24.2341 45.3469 26.0865 45.9774 27.9976 46.0124C24.7533 48.5541 20.7466 49.9329 16.6221 49.9268C15.8915 49.927 15.1615 49.8844 14.4359 49.7993C18.6225 52.4858 23.496 53.9116 28.4734 53.906C45.3224 53.906 54.5333 39.9788 54.5333 27.8999C54.5333 27.5075 54.5234 27.1111 54.5057 26.7187C56.2974 25.4256 57.8439 23.8243 59.0729 21.9899L59.0768 21.9841Z" fill="url(#paint0_linear_117_49)"/>
<g filter="url(#filter0_bii_117_49)">
<circle cx="36.7563" cy="36.6393" r="36.6393" fill="white"/>
</g>
<path d="M55.7077 26.0387C54.4377 26.5958 53.0735 26.9723 51.6393 27.1424C53.1191 26.2657 54.2262 24.8859 54.7541 23.2604C53.3637 24.0781 51.8421 24.6536 50.2552 24.962C49.1882 23.8339 47.7748 23.0862 46.2345 22.835C44.6942 22.5837 43.1133 22.843 41.737 23.5725C40.3608 24.302 39.2664 25.461 38.6236 26.8694C37.9809 28.2779 37.8257 29.8571 38.1823 31.3618C35.3652 31.2217 32.6092 30.4967 30.0933 29.2339C27.5774 27.971 25.3579 26.1985 23.5787 24.0314C22.9703 25.0704 22.6205 26.2751 22.6205 27.558C22.6198 28.713 22.9071 29.8503 23.4568 30.8689C24.0065 31.8876 24.8017 32.7562 25.7718 33.3976C24.6468 33.3622 23.5465 33.0612 22.5627 32.5197V32.6101C22.5626 34.23 23.1285 35.8 24.1645 37.0538C25.2004 38.3075 26.6426 39.1678 28.2463 39.4887C27.2026 39.7683 26.1084 39.8095 25.0463 39.6092C25.4988 41.003 26.3802 42.2218 27.567 43.095C28.7539 43.9683 30.1868 44.4522 31.6653 44.479C29.1555 46.4297 26.056 47.4878 22.8654 47.4831C22.3002 47.4833 21.7354 47.4506 21.1741 47.3852C24.4128 49.447 28.1829 50.5412 32.0333 50.5369C45.0675 50.5369 52.1929 39.8486 52.1929 30.5787C52.1929 30.2776 52.1853 29.9734 52.1716 29.6722C53.5576 28.6798 54.7539 27.451 55.7046 26.0432L55.7077 26.0387Z" fill="url(#paint1_linear_117_49)"/>
<defs>
<filter id="filter0_bii_117_49" x="-29.8829" y="-30" width="133.279" height="133.279" filterUnits="userSpaceOnUse" color-interpolation-filters="sRGB">
<feFlood flood-opacity="0" result="BackgroundImageFix"/>
<feGaussianBlur in="BackgroundImage" stdDeviation="15"/>
<feComposite in2="SourceAlpha" operator="in" result="effect1_backgroundBlur_117_49"/>
<feBlend mode="normal" in="SourceGraphic" in2="effect1_backgroundBlur_117_49" result="shape"/>
<feColorMatrix in="SourceAlpha" type="matrix" values="0 0 0 0 0 0 0 0 0 0 0 0 0 0 0 0 0 0 127 0" result="hardAlpha"/>
<feOffset dy="2"/>
<feGaussianBlur stdDeviation="2"/>
<feComposite in2="hardAlpha" operator="arithmetic" k2="-1" k3="1"/>
<feColorMatrix type="matrix" values="0 0 0 0 1 0 0 0 0 1 0 0 0 0 1 0 0 0 0.1 0"/>
<feBlend mode="normal" in2="shape" result="effect2_innerShadow_117_49"/>
<feColorMatrix in="SourceAlpha" type="matrix" values="0 0 0 0 0 0 0 0 0 0 0 0 0 0 0 0 0 0 127 0" result="hardAlpha"/>
<feOffset dy="-5"/>
<feGaussianBlur stdDeviation="6"/>
<feComposite in2="hardAlpha" operator="arithmetic" k2="-1" k3="1"/>
<feColorMatrix type="matrix" values="0 0 0 0 0.113725 0 0 0 0 0.631373 0 0 0 0 0.94902 0 0 0 0.35 0"/>
<feBlend mode="normal" in2="effect2_innerShadow_117_49" result="effect3_innerShadow_117_49"/>
</filter>
<linearGradient id="paint0_linear_117_49" x1="16.6135" y1="20.4317" x2="41.8763" y2="48.2181" gradientUnits="userSpaceOnUse">
<stop stop-color="#009EFF"/>
<stop offset="1" stop-color="#00FAFA"/>
</linearGradient>
<linearGradient id="paint1_linear_117_49" x1="22.8587" y1="24.8473" x2="42.2312" y2="46.3255" gradientUnits="userSpaceOnUse">
<stop stop-color="#009EFF"/>
<stop offset="1" stop-color="#00FAFA"/>
</linearGradient>
</defs>
</svg>
